<svg width="78" height="66" viewBox="0 0 78 66" fill="none" xmlns="http://www.w3.org/2000/svg">
<g clip-path="url(#clip0_211_855)">
<path d="M57.1786 44.9117C56.3319 45.0646 55.4286 45.1559 54.494 45.1827C54.0799 45.1944 53.7537 45.5397 53.766 45.9537C53.7772 46.3605 54.1107 46.6822 54.515 46.6822C54.5223 46.6822 54.5296 46.6822 54.537 46.6817C55.5462 46.6529 56.5247 46.5543 57.4452 46.3883C57.8529 46.3146 58.1234 45.9244 58.0501 45.5167C57.9759 45.109 57.5853 44.8409 57.1786 44.9117Z" fill="#2A1101"/>
<path d="M53.0771 40.7658C53.2319 40.7941 54.9443 41.0949 57.1327 41.0949C59.8656 41.0949 63.3403 40.6252 65.4467 38.5676C65.7431 38.278 65.7489 37.8029 65.4594 37.507C65.1708 37.2111 64.6943 37.2053 64.3988 37.4943C61.1601 40.6589 53.4218 39.3044 53.3446 39.2902C52.9384 39.218 52.5468 39.4865 52.4731 39.8942C52.3993 40.3019 52.6694 40.6921 53.0771 40.7658Z" fill="#2A1101"/>
<path d="M35.1488 46.1841C35.1864 46.1841 35.2245 46.1812 35.2631 46.1753C35.6723 46.1128 35.9535 45.7305 35.891 45.3209L34.1571 33.9625C34.0946 33.5533 33.7162 33.2735 33.3026 33.3345C32.8935 33.397 32.6122 33.7794 32.6747 34.189L34.4086 45.5474C34.4652 45.9185 34.7846 46.1841 35.1488 46.1841Z" fill="#2A1101"/>
<path d="M52.3789 58.6107C51.9648 58.6107 51.6289 58.9466 51.6289 59.3607C51.6289 59.7747 51.9648 60.1107 52.3789 60.1107C53.4985 60.1107 54.6006 60.0902 55.6807 60.0506C56.0947 60.0355 56.418 59.6878 56.4028 59.2737C56.3872 58.8592 56.0225 58.5223 55.626 58.5516C54.5635 58.5902 53.48 58.6107 52.3789 58.6107Z" fill="#2A1101"/>
<path d="M69.0066 46.9558C68.6087 46.8562 68.198 47.0988 68.0969 47.5012C67.9964 47.9025 68.2405 48.3103 68.6424 48.4109C74.1018 49.7795 76.0471 51.4963 76.0471 52.6467C76.0471 54.6301 70.8157 57.1731 60.8167 58.1955C60.4046 58.2375 60.1048 58.6057 60.1468 59.0178C60.1863 59.404 60.512 59.6916 60.8919 59.6916C60.9173 59.6916 60.9431 59.6901 60.969 59.6877C66.943 59.077 73.2169 57.6533 76.0271 55.3363V58.4841C76.0271 58.5071 76.0382 58.5265 76.0402 58.5489C75.8933 61.3533 66.2209 64.4484 52.3802 64.4484C38.4324 64.4484 28.7127 61.3054 28.7127 58.4841V55.3324C31.8467 57.9393 39.3625 59.3958 46.0257 59.8835C46.0442 59.885 46.0628 59.8855 46.0813 59.8855C46.4705 59.8855 46.7996 59.5847 46.8284 59.1901C46.8587 58.7771 46.5481 58.4177 46.135 58.3874C35.2293 57.5891 28.7127 54.8415 28.7127 52.6467C28.7127 51.9187 29.4671 51.0974 30.8367 50.3342C30.9543 50.2686 31.0369 50.1709 31.1021 50.0634C31.8943 50.1359 32.6797 50.1818 33.43 50.1818C34.7179 50.1817 35.9103 50.0935 36.9031 49.9829C40.7374 54.9325 46.6162 56.0149 51.0115 56.0149C54.2346 56.0149 56.6595 55.4353 56.8904 55.3781C67.9182 52.6023 69.6839 31.5232 69.7537 30.6272C69.7585 30.5655 69.7418 30.5091 69.7322 30.4506C69.7814 29.7964 69.6764 29.1538 69.3855 28.5305C67.8186 25.1745 61.6443 23.654 61.3826 23.591C61.2027 23.5482 61.0268 23.5821 60.8741 23.6587C59.7134 20.907 58.0541 18.3148 57.9475 18.1496C55.0586 13.5163 49.2291 11.3853 43.872 10.4213C43.4246 8.97372 41.9427 4.04519 41.4431 0.691614C41.3826 0.281946 40.9969 -0.00174549 40.5911 0.0602662C40.1814 0.121301 39.8987 0.502649 39.9597 0.912317C40.4148 3.96792 41.6171 8.15408 42.2213 10.1546C40.2113 9.87185 38.3219 9.73922 36.7527 9.68771C36.3445 9.65792 35.992 9.99874 35.9788 10.4128C35.9651 10.8264 36.2898 11.1731 36.7039 11.1867C42.4744 11.3762 52.742 12.636 56.6809 18.9528C57.7947 20.6823 60.6272 25.6623 60.492 28.0954C60.3344 28.6185 59.1551 32.0014 54.9745 33.4972C56.7699 29.2107 55.925 25.0778 55.8836 24.8835C55.7967 24.4787 55.3987 24.2219 54.9925 24.3078C54.5877 24.3947 54.3299 24.7937 54.4168 25.1989C54.427 25.2459 55.3906 29.9332 52.9674 34.1941C52.7027 34.4021 51.7144 35.0456 50.1433 34.711L51.2483 31.6721C51.2781 31.5901 51.2932 31.5031 51.2932 31.4157V25.7068C51.2932 25.2927 50.9573 24.9568 50.5432 24.9568C50.1292 24.9568 49.7932 25.2927 49.7932 25.7068V31.2834L48.496 34.8505L48.0915 35.3929C46.87 35.0853 45.5798 34.6916 44.2262 34.2124C45.3394 30.083 44.0856 22.9887 44.0286 22.6706C43.9549 22.2629 43.5677 21.9943 43.1575 22.0651C42.7498 22.1389 42.4788 22.5285 42.552 22.9362C42.5653 23.0099 43.7829 29.8944 42.8153 33.6928C41.1197 33.0349 39.3241 32.2364 37.4248 31.2789L36.3054 24.3864C36.2752 24.1985 36.1741 24.029 36.0232 23.9128C35.2063 23.2826 34.3924 22.7372 33.5852 22.2542L31.4324 18.8576C31.2107 18.507 30.7469 18.405 30.3977 18.6257C30.0476 18.8474 29.9441 19.3108 30.1658 19.6604L30.9504 20.8982C29.4208 20.2351 27.9403 19.7977 26.5437 19.5281C26.6442 18.8745 26.8515 17.8274 27.2649 16.6877C27.2677 16.6801 27.2658 16.6724 27.2683 16.6648C27.2841 16.617 27.2849 16.5659 27.2908 16.5149C27.2963 16.4656 27.3072 16.4174 27.303 16.369C27.3023 16.3609 27.3059 16.3536 27.305 16.3454C27.2576 15.9377 26.1053 6.28781 22.6331 0.420129C22.4226 0.0636842 21.9627 -0.0535033 21.6057 0.156458C21.2493 0.367395 21.1311 0.827356 21.3421 1.1838C24.4222 6.38943 25.6327 15.0995 25.7943 16.3569C25.3822 17.5396 25.1669 18.6053 25.061 19.2971C24.3975 19.2184 23.7567 19.1721 23.1464 19.1567C19.9165 13.9987 12.0529 13.9089 11.6526 13.9089C11.6502 13.9089 11.6477 13.9089 11.6458 13.9089C9.79422 13.8342 7.84744 14.344 5.85183 15.4265C3.68972 16.5988 2.26248 18.0232 2.17996 18.1071C1.54324 18.8064 0.985134 19.6779 0.520778 20.6965C0.349392 21.0735 0.515407 21.5183 0.892361 21.6901C0.993435 21.736 1.0989 21.7575 1.20291 21.7575C1.48758 21.7575 1.76004 21.5944 1.88601 21.3186C2.28543 20.4416 2.75759 19.7009 3.26638 19.1408C3.27957 19.1276 4.59646 17.8132 6.56668 16.7448C8.32254 15.7932 10.0222 15.3493 11.6155 15.4084C11.6945 15.4084 18.2109 15.4533 21.3272 19.1917C18.7864 19.352 16.9781 19.9366 16.3549 20.1655C12.9756 19.4382 10.115 18.9419 9.83133 18.8947C9.72976 18.8894 7.36697 18.7424 5.49002 19.6159C5.11453 19.7907 4.95193 20.237 5.12625 20.6125C5.30105 20.9875 5.74636 21.1486 6.12283 20.9763C7.28494 20.4353 8.76345 20.3786 9.37283 20.3786C9.55642 20.3786 9.66092 20.384 9.65506 20.3825C9.83816 20.4143 22.5369 22.6242 26.3191 24.6247C27.9002 25.3327 31.0149 27.2629 30.7283 28.7805C30.4837 29.2307 28.9202 31.7468 25.0218 30.8298C24.9095 30.8034 24.7995 30.8086 24.6942 30.8311C23.265 29.6504 21.0059 29.3719 20.7205 29.341C20.3108 29.2995 19.9402 29.594 19.8948 30.0051C19.8499 30.4167 20.1472 30.7868 20.5584 30.8322C21.2703 30.9109 23.2874 31.3298 24.0608 32.3112C24.3084 32.6247 24.4002 32.9577 24.3494 33.3591C24.3416 33.4206 24.3416 33.4836 24.3494 33.5451C24.4496 34.3651 24.4337 36.5658 23.2863 37.2783L19.3313 37.2326C18.9002 37.1975 18.5774 37.5598 18.5725 37.9738C18.5677 38.3884 18.8997 38.7277 19.3137 38.7326L22.9783 38.7749C23.3596 39.9745 24.1099 43.216 21.7473 44.6399C21.3049 44.6619 20.1022 44.7096 18.575 44.6696C18.1419 44.6687 17.8167 44.987 17.8064 45.4011C17.7962 45.8151 18.1238 46.1589 18.5379 46.1696C18.9715 46.1804 19.3792 46.1843 19.7522 46.1843C20.8763 46.1843 21.6793 46.1461 21.9395 46.132C23.2119 46.3454 25.1364 46.9271 25.5735 47.5949C25.6438 47.7024 25.6365 47.7619 25.6219 47.8191C25.6131 47.8529 25.6204 47.8855 25.6165 47.9192C25.6123 47.9464 25.5993 47.9701 25.5979 47.9983C25.5974 48.0124 25.5769 48.3571 25.1897 48.6687C24.76 49.0134 23.6145 49.5212 20.7029 49.0315C20.6023 49.0232 10.5901 48.1618 6.36648 46.2927C6.33767 46.2805 3.50076 45.0261 1.89627 41.153C1.73806 40.7712 1.30154 40.5876 0.916286 40.7473C0.533474 40.906 0.351833 41.3444 0.510525 41.7273C2.36355 46.1999 5.6448 47.6169 5.7698 47.6692C10.2132 49.6355 20.156 50.4909 20.5149 50.5183C21.3782 50.6648 22.1619 50.7375 22.865 50.7375C24.3416 50.7375 25.4607 50.4157 26.2058 49.7741C26.4416 49.5712 26.6119 49.3579 26.7397 49.1511C27.4662 49.4145 28.22 49.6027 28.9812 49.755C27.8118 50.6386 27.2127 51.6073 27.2127 52.6467V58.4841C27.2127 63.3322 40.1795 65.9484 52.3802 65.9484C64.5803 65.9484 77.5471 63.3322 77.5471 58.4841C77.5471 58.4489 77.5318 58.4188 77.5271 58.385V52.8698C77.5271 52.8589 77.5214 52.8499 77.5209 52.8391C77.5257 52.7741 77.5471 52.7125 77.5471 52.6467C77.5471 49.7126 72.9031 47.9323 69.0066 46.9558ZM61.9602 28.4152C61.9715 28.3733 61.9788 28.3298 61.9822 28.2863C62.0541 27.3972 61.8213 26.2984 61.4404 25.1566C63.2644 25.6627 67.0561 27.0875 68.0261 29.1652C68.3626 29.8855 68.3289 30.632 67.9739 31.3625C67.9168 31.4477 63.5688 37.5808 52.1798 36.1676C53.0252 35.9616 53.6183 35.5849 53.8968 35.3693C60.4436 33.9475 61.9011 28.6423 61.9602 28.4152ZM55.5945 37.9465C62.1243 37.9458 65.9777 35.4241 67.856 33.6909C67.3458 36.9683 66.2599 42.1949 64.1169 46.5526C55.7401 50.1541 45.9769 46.9325 45.8792 46.8991C45.4871 46.7673 45.0608 46.9768 44.9285 47.3689C44.7957 47.7609 45.0052 48.1867 45.3972 48.32C45.6673 48.4113 49.7976 49.781 55.0613 49.781C57.5496 49.781 60.2904 49.4645 62.9966 48.5728C61.367 51.1861 59.2575 53.2354 56.5266 53.9226C56.4068 53.9513 44.8704 56.7078 38.6496 49.7411C39.2407 49.6421 39.613 49.5613 39.6765 49.5471C39.8174 49.5155 39.9311 49.4373 40.0276 49.343C40.8282 49.6766 42.0683 50.1096 43.2483 50.1755C43.263 50.176 43.2766 50.1765 43.2908 50.1765C43.6858 50.1765 44.0169 49.8674 44.0393 49.4685C44.0623 49.0549 43.7459 48.7009 43.3323 48.6775C42.067 48.607 40.64 47.9885 40.097 47.7327L39.3595 43.192C41.1894 43.9306 44.8453 45.1962 49.6292 45.7863C49.6604 45.7902 49.6912 45.7922 49.722 45.7922C50.095 45.7922 50.4182 45.5139 50.4651 45.134C50.5159 44.7229 50.2239 44.3484 49.8128 44.2981C44.2711 43.614 40.2262 41.9534 39.075 41.4405L37.7211 33.1033C45.1465 36.7089 51.0251 37.947 55.5945 37.9465ZM27.122 47.7072C27.1134 47.3833 27.0204 47.0662 26.8284 46.7732C26.2376 45.8703 24.8177 45.3068 23.6692 44.9846C25.3396 43.0671 25.0198 40.1565 24.4197 38.3298C26.1018 36.9426 25.9051 34.0271 25.8479 33.4533C25.8802 33.1165 25.8477 32.7907 25.7703 32.4774C26.0743 32.5114 26.3686 32.531 26.6482 32.531C30.5769 32.531 32.1004 29.3943 32.1175 29.3576C32.137 29.3161 32.1526 29.2732 32.1638 29.2287C32.9881 26.0695 27.5545 23.5344 26.9768 23.2771C25.4338 22.4602 22.5787 21.6299 19.634 20.9141C23.0263 20.3937 28.9097 20.4372 34.8728 24.9221L38.6555 48.2155C36.7561 48.5446 31.3382 49.2692 27.1565 47.7126C27.1452 47.7085 27.1335 47.7108 27.122 47.7072Z" fill="#2A1101"/>
<path d="M63.6659 54.411C63.7748 54.7191 64.0643 54.9115 64.3734 54.9115C64.4564 54.9115 64.5404 54.8978 64.6229 54.869C67.8065 53.7459 69.0848 52.8411 69.035 51.7459C68.9813 50.554 67.3344 50.1361 66.7142 49.9783C66.3119 49.8763 65.9052 50.1195 65.8026 50.5208C65.7006 50.9222 65.9437 51.3304 66.3451 51.4324C66.996 51.5975 67.3109 51.7498 67.4564 51.8421C67.2323 52.0682 66.4896 52.6195 64.1239 53.4539C63.7333 53.5921 63.5282 54.0203 63.6659 54.411Z" fill="#2A1101"/>
<path d="M30.5772 57.7235C30.2447 57.4779 29.775 57.5473 29.5289 57.8798C29.2823 58.2118 29.3507 58.6806 29.6827 58.9276C29.7667 58.9901 31.7755 60.4672 34.9654 61.1962C35.0216 61.2094 35.0777 61.2152 35.1329 61.2152C35.4752 61.2152 35.7843 60.9799 35.8634 60.6322C35.9556 60.2284 35.7032 59.8266 35.2994 59.7343C32.4346 59.0795 30.5953 57.7372 30.5772 57.7235Z" fill="#2A1101"/>
</g>
<defs>
<clipPath id="clip0_211_855">
<rect width="78" height="66" fill="white"/>
</clipPath>
</defs>
</svg>
