<svg width="84" height="90" viewBox="0 0 84 90" fill="none" xmlns="http://www.w3.org/2000/svg">
<g clip-path="url(#clip0_212_865)">
<path d="M50.3995 47.758C50.3995 45.7 49.3335 43.807 47.6845 42.936C46.1765 42.143 44.3975 42.308 42.8045 43.398C42.5025 43.604 42.2355 43.832 42.0005 44.076C41.7655 43.832 41.4985 43.604 41.1975 43.398C39.6025 42.308 37.8235 42.143 36.3165 42.936C34.6655 43.807 33.5995 45.7 33.5995 47.758C33.5995 51.56 38.1045 56.444 41.7935 57.775C41.8595 57.799 41.9285 57.81 41.9985 57.81C42.0635 57.81 42.1285 57.8 42.1915 57.778C45.8865 56.538 50.3995 51.671 50.3995 47.758ZM41.9995 46.327C42.1865 46.842 42.2585 47.36 42.2475 47.806C42.2295 48.481 42.0265 48.812 42.0425 48.856C41.9705 48.812 41.7665 48.48 41.7505 47.803C41.7405 47.356 41.8135 46.841 41.9995 46.327ZM42.0065 56.56C38.8085 55.288 34.8095 50.893 34.8095 47.758C34.8095 46.143 35.6225 44.671 36.8805 44.007C37.3335 43.768 37.8165 43.648 38.3135 43.648C39.0355 43.648 39.7845 43.9 40.5135 44.397C40.8035 44.595 41.0505 44.82 41.2595 45.06C40.4885 46.396 40.4065 47.913 40.6965 48.856C40.9295 49.607 41.4155 50.055 42.0005 50.055C42.2805 50.055 42.9685 49.939 43.3025 48.857C43.5945 47.913 43.5125 46.397 42.7395 45.06C42.9495 44.82 43.1965 44.595 43.4865 44.397C44.7145 43.559 46.0045 43.419 47.1185 44.007C48.3765 44.671 49.1895 46.143 49.1895 47.758C49.1895 50.983 45.1995 55.364 42.0065 56.56ZM15.7845 48.18C15.5275 49.535 15.4225 50.971 15.4765 52.45C15.4885 52.784 15.2275 53.065 14.8935 53.077C14.8855 53.077 14.8785 53.077 14.8715 53.077C14.5465 53.077 14.2785 52.821 14.2665 52.494C14.2105 50.924 14.3205 49.397 14.5945 47.955C14.7345 47.216 14.9225 46.476 15.1525 45.756C15.2535 45.438 15.5965 45.261 15.9135 45.364C16.2315 45.465 16.4075 45.805 16.3055 46.125C16.0905 46.797 15.9155 47.488 15.7845 48.18ZM25.7095 32.59C25.9405 32.832 25.9305 33.216 25.6885 33.446C22.7335 36.261 19.6865 39.302 17.7575 42.783C17.6475 42.982 17.4415 43.095 17.2275 43.095C17.1285 43.095 17.0285 43.07 16.9345 43.018C16.6415 42.856 16.5365 42.488 16.6995 42.195C18.7105 38.565 21.8295 35.449 24.8525 32.569C25.0955 32.339 25.4795 32.346 25.7095 32.59ZM81.4005 39.158C81.2685 38.85 80.9145 38.712 80.6065 38.839C80.2995 38.97 80.1565 39.326 80.2875 39.633C80.3505 39.783 86.5535 54.795 78.0195 73.211C73.7895 82.337 65.2085 87.021 58.5885 88.363C56.3075 88.825 54.5815 88.802 53.5325 88.552C61.5575 86.367 65.7365 83.342 65.9435 83.189C66.2125 82.991 66.2695 82.612 66.0705 82.343C65.8725 82.074 65.4955 82.016 65.2245 82.216C65.1665 82.259 59.2465 86.545 48.1045 88.535C48.0655 88.428 48.0285 88.234 48.0755 87.992C48.1395 87.659 48.3635 87.192 49.0645 86.854C49.0665 86.853 49.0675 86.852 49.0695 86.851C59.3665 83.699 63.7275 80.207 63.9285 80.042C64.1875 79.83 64.2255 79.45 64.0135 79.191C63.8035 78.934 63.4225 78.894 63.1625 79.105C63.1105 79.148 57.8045 83.393 45.2445 86.683C45.2075 86.46 45.2075 86.158 45.2875 85.844C45.3875 85.453 45.5765 85.177 45.8045 85.087C45.8105 85.085 45.8145 85.08 45.8215 85.077C57.8805 80.397 61.6625 77.027 61.8195 76.884C62.0655 76.658 62.0825 76.276 61.8575 76.03C61.6335 75.784 61.2505 75.764 61.0025 75.99C60.9665 76.024 57.1785 79.382 45.3175 83.978C45.2755 83.779 45.2555 83.49 45.3405 83.147C45.5225 82.409 46.1245 81.762 47.0805 81.276C51.6045 78.972 53.7165 77.54 57.6905 74.772C61.6195 72.036 63.8925 68.901 63.5495 67.685C63.4555 67.369 63.2355 67.129 62.9255 67.011C62.5235 66.858 61.9975 66.933 61.5475 67.216C57.5925 69.765 55.5355 70.701 53.3955 70.926C52.3915 71.032 50.8975 70.866 50.2735 70.388C50.6745 70.175 51.2455 69.861 51.9105 69.474C54.4365 68.026 56.5105 66.18 58.7065 64.227C61.2055 62.003 63.7895 59.704 67.1845 57.934C70.1815 56.369 72.5685 57.029 72.5895 57.036C72.7535 57.085 72.9335 57.062 73.0815 56.97C73.2285 56.878 73.3295 56.729 73.3595 56.558C75.7495 42.634 68.0265 35.336 60.5575 28.279C55.2265 23.241 50.1895 18.483 49.4205 11.626C49.0665 8.472 50.0875 6.016 50.6975 4.548C50.8625 4.152 50.9885 3.838 51.0715 3.567C51.1005 3.491 51.1955 3.255 51.1465 2.888C50.8905 1.004 46.2795 0 41.9995 0C37.5825 0 32.7865 0.963 32.8285 3.076C32.8395 3.61 33.1095 4.131 33.3045 4.599C33.9145 6.067 34.9355 8.523 34.5815 11.677C33.8125 18.534 28.7765 23.292 23.4445 28.33C15.9755 35.387 8.25249 42.685 10.6425 56.609C10.6725 56.778 10.7735 56.927 10.9195 57.019C11.0645 57.11 11.2425 57.135 11.4105 57.088C11.4335 57.079 13.8185 56.421 16.8175 57.985C20.2115 59.755 22.7965 62.054 25.2945 64.278C27.4895 66.231 29.5635 68.076 32.0865 69.523C32.7475 69.908 33.3255 70.227 33.7275 70.439C33.1015 70.919 31.6075 71.082 30.6045 70.977C28.4655 70.752 26.4085 69.816 22.4455 67.261C22.0025 66.985 21.4755 66.91 21.0735 67.063C20.7655 67.181 20.5435 67.421 20.4495 67.743C20.1065 68.953 22.3795 72.086 26.3095 74.823C30.2835 77.591 32.3945 79.023 36.9205 81.327C37.8755 81.813 38.4775 82.46 38.6595 83.198C38.7445 83.541 38.7245 83.83 38.6825 84.029C26.8215 79.435 23.0345 76.076 22.9975 76.042C22.7505 75.817 22.3665 75.836 22.1425 76.082C21.9175 76.328 21.9345 76.711 22.1805 76.936C22.3375 77.079 26.1195 80.449 38.1795 85.128C38.1855 85.13 38.1885 85.135 38.1945 85.138C38.4245 85.228 38.6135 85.505 38.7125 85.896C38.7935 86.21 38.7935 86.512 38.7555 86.734C26.1955 83.444 20.8905 79.199 20.8375 79.156C20.5775 78.944 20.1965 78.985 19.9865 79.242C19.7745 79.501 19.8125 79.881 20.0715 80.093C20.2715 80.258 24.6325 83.749 34.9275 86.901C34.9305 86.903 34.9325 86.906 34.9355 86.907C35.6365 87.244 35.8595 87.711 35.9235 88.043C35.9705 88.286 35.9345 88.479 35.8945 88.587C24.7515 86.597 18.8335 82.312 18.7745 82.268C18.5035 82.069 18.1255 82.127 17.9285 82.395C17.7295 82.664 17.7865 83.043 18.0555 83.241C18.2625 83.394 22.4415 86.418 30.4645 88.603C29.4155 88.852 27.6915 88.876 25.4125 88.415C18.7915 87.074 10.2105 82.389 5.97949 73.262C-2.55551 54.846 3.64849 39.835 3.71149 39.685C3.84249 39.378 3.69949 39.022 3.39249 38.891C3.08649 38.761 2.73049 38.902 2.59849 39.21C2.53249 39.364 -3.88951 54.845 4.88249 73.77C9.30249 83.308 18.2615 88.202 25.1725 89.601C26.4855 89.869 27.6915 90 28.7385 90C30.3445 90 31.5765 89.692 32.2415 89.088C32.2495 89.081 32.2525 89.07 32.2595 89.063C33.3985 89.334 35.7125 89.832 36.0255 89.827C36.4765 89.82 36.8795 89.484 37.0585 88.929C37.1975 88.497 37.1715 87.998 37.0045 87.51C37.6385 87.687 38.2765 87.872 38.9525 88.036C39.2245 88.102 39.4505 87.978 39.5665 87.838C40.0385 87.274 40.0675 86.307 39.8855 85.596C39.8215 85.347 39.7225 85.134 39.6095 84.936C39.6455 84.878 39.6825 84.829 39.7155 84.755C40.2065 83.651 40.0115 81.54 37.4685 80.246C33.0145 77.98 30.9295 76.564 27.0005 73.829C23.4825 71.378 21.8335 68.948 21.6335 68.212C21.6835 68.226 21.7405 68.248 21.7965 68.283C25.9325 70.949 28.1245 71.933 30.4765 72.18C31.4885 72.29 34.2905 72.234 35.0485 70.704C35.2515 70.296 35.0865 69.788 34.6665 69.56C34.3135 69.385 33.5865 68.994 32.6935 68.473C30.2745 67.087 28.2465 65.283 26.0995 63.372C23.5455 61.099 20.9045 58.749 17.3765 56.909C14.8865 55.61 12.7675 55.653 11.7375 55.794C9.78449 42.899 17.1495 35.942 24.2755 29.209C29.7735 24.015 34.9655 19.109 35.7845 11.811C36.1035 8.954 35.4155 6.671 34.7965 5.07C36.5895 5.802 39.3515 6.151 41.9995 6.151C44.6355 6.151 47.3845 5.805 49.1785 5.079C48.5655 6.676 47.8985 8.937 48.2145 11.757C49.0335 19.055 54.2255 23.961 59.7235 29.155C66.8495 35.889 74.2145 42.846 72.2615 55.74C71.2315 55.6 69.1125 55.558 66.6225 56.855C63.0955 58.695 60.4535 61.044 57.8995 63.318C55.7525 65.228 53.7245 67.033 51.3025 68.421C50.3915 68.951 49.6725 69.336 49.3125 69.516C48.9125 69.737 48.7495 70.245 48.9505 70.65C49.7075 72.177 52.5095 72.237 53.5215 72.126C55.8755 71.879 58.0665 70.895 62.1965 68.234C62.2485 68.2 62.3025 68.178 62.3505 68.163C62.1155 68.968 60.4645 71.361 56.9995 73.775C53.0715 76.51 50.9855 77.926 46.5325 80.192C43.9885 81.486 43.7935 83.597 44.2845 84.701C44.3155 84.772 44.3525 84.818 44.3865 84.874C44.2755 85.073 44.1795 85.291 44.1165 85.54C43.9345 86.25 43.9625 87.22 44.4345 87.784C44.5505 87.924 44.7695 88.053 45.0485 87.982C45.7195 87.81 46.3575 87.634 46.9895 87.458C46.8235 87.945 46.8045 88.444 46.9435 88.875C47.1215 89.43 47.5235 89.772 47.9755 89.772C48.0275 89.772 48.0795 89.768 48.1335 89.758C49.4075 89.535 50.6025 89.279 51.7415 89.008C51.7495 89.016 51.7525 89.026 51.7605 89.034C52.4255 89.637 53.6565 89.946 55.2625 89.946C56.3095 89.945 57.5165 89.814 58.8315 89.548C65.7415 88.148 74.7005 83.254 79.1195 73.718C87.8885 54.793 81.4665 39.311 81.4005 39.158ZM34.0385 3.076C34.0385 2.518 36.7475 1.21 41.9995 1.21C47.2515 1.21 49.9605 2.518 49.9605 3.076C49.9605 3.634 47.2525 4.942 41.9995 4.942C36.7465 4.942 34.0385 3.634 34.0385 3.076Z" fill="#2A1101"/>
</g>
<defs>
<clipPath id="clip0_212_865">
<rect width="84" height="90" fill="white"/>
</clipPath>
</defs>
</svg>
