<svg width="29" height="24" viewBox="0 0 29 24" fill="none" xmlns="http://www.w3.org/2000/svg">
<g clip-path="url(#clip0_211_814)">
<path d="M21.0045 5.9706C21.0322 5.9668 21.0599 5.96553 21.0851 5.96807H21.0939C21.4728 5.98453 21.9511 6.25058 22.5703 6.90682C23.138 7.50987 23.8617 8.47143 24.7868 9.91694C25.4024 9.96889 26.0141 9.96382 26.622 9.90174C27.2803 9.83459 27.9361 9.70157 28.5856 9.50139C28.7555 9.44945 28.9342 9.54573 28.9858 9.71676C29.0374 9.88779 28.9418 10.0677 28.7718 10.1196C28.0808 10.3325 27.3848 10.4744 26.6849 10.5453C25.9851 10.6162 25.279 10.6163 24.5691 10.5466C24.4747 10.5364 24.3853 10.4845 24.33 10.3984C23.3897 8.91863 22.6647 7.94945 22.1033 7.35402C21.6187 6.83967 21.294 6.63061 21.08 6.61417C19.4437 6.86882 18.0202 7.19821 16.808 7.60109C16.5172 7.69738 16.2391 7.79873 15.9735 7.90388C16.0792 8.00523 16.1573 8.13318 16.1963 8.27886C16.2454 8.46129 16.2341 8.67032 16.1397 8.88064L16.1359 8.89078C15.976 9.23664 15.5783 9.59009 14.8319 9.82321C14.9288 9.85488 15.0282 9.87769 15.1302 9.88909C15.9546 9.9271 16.7161 9.87262 17.4134 9.72566C18.1069 9.5787 18.7388 9.33926 19.3065 9.00605C19.46 8.91737 19.6564 8.96931 19.7458 9.12387C19.8339 9.27843 19.7823 9.47605 19.6287 9.56602C19.4928 9.64584 19.3543 9.71932 19.2121 9.79026C19.3669 9.83967 19.5255 9.88401 19.6866 9.92582C20.1271 10.0398 20.5979 10.1311 21.0951 10.1982C21.2713 10.221 21.3946 10.3832 21.372 10.5605C21.3506 10.7227 21.2146 10.8405 21.0561 10.8418C19.9446 10.8861 18.6444 10.8798 17.1565 10.8203C15.7115 10.7632 14.1017 10.6568 12.3306 10.5048L12.3381 10.5111C12.5848 10.7278 12.6742 11.0306 12.5949 11.436C12.4766 12.0479 12.1733 12.129 11.6345 12.0909C12.7585 12.428 13.7755 12.7041 14.6818 12.9195C15.7366 13.1691 16.639 13.3363 17.3854 13.4174L17.4156 13.4225C18.1822 13.5479 18.8757 13.6492 19.4937 13.724C20.1105 13.7987 20.6341 13.8456 21.0658 13.8659C21.2433 13.8735 21.3805 14.0242 21.3729 14.2029C21.3654 14.3815 21.2156 14.5196 21.0381 14.512C20.5762 14.4917 20.0349 14.4436 19.4182 14.3688C18.8103 14.2954 18.1079 14.1927 17.3124 14.0623C16.5371 13.9774 15.6107 13.8076 14.5345 13.5517C13.4671 13.2983 12.2449 12.9601 10.8692 12.5357L10.8541 12.5319C10.7459 12.4977 10.6477 12.4571 10.5571 12.4128C10.6766 12.5901 10.7106 12.7764 10.7031 12.9398L10.6943 13.0361C10.625 13.4998 10.406 13.7063 10.0989 13.7772L10.1077 13.7798L10.1152 13.7823C10.8679 14.0255 11.6697 14.2916 12.5193 14.5817C13.6282 14.9605 14.795 15.3697 16.0161 15.808C16.9009 15.9664 17.7392 16.1235 18.5272 16.2806C19.3 16.4339 20.0539 16.5948 20.7877 16.7595C20.9602 16.7975 21.0697 16.971 21.0319 17.1446C20.9942 17.3182 20.8217 17.4284 20.6493 17.3904C19.9759 17.2396 19.227 17.0813 18.4038 16.9178C17.6096 16.7595 16.77 16.6011 15.8864 16.444L15.8235 16.4288C14.556 15.9728 13.3854 15.561 12.3129 15.1961C11.7502 15.0048 11.2077 14.8224 10.6841 14.6501C10.9296 14.8667 11.0416 15.1404 10.9434 15.5065C10.7924 16.0652 10.6048 16.2527 10.2637 16.2477C10.8352 16.4618 11.4116 16.6733 11.9944 16.8824C12.0133 16.8874 12.0309 16.8938 12.0485 16.9014L12.8302 17.1801C13.8636 17.5449 14.9322 17.9098 16.0323 18.2721C16.9473 18.3988 17.7264 18.5129 18.3671 18.6129C19.0103 18.713 19.4823 18.7966 19.7819 18.86C19.9556 18.8967 20.0663 19.069 20.0298 19.2439C19.9933 19.4187 19.8221 19.5302 19.6484 19.4934C19.3388 19.4276 18.8781 19.3465 18.2689 19.2502C17.6686 19.1564 16.8882 19.0424 15.9291 18.9107L15.8573 18.8967C14.7698 18.5395 13.6886 18.1695 12.6161 17.7907L12.4197 17.721C12.5305 17.8617 12.5859 18.0276 12.567 18.2189L12.5443 18.3482C12.3983 18.9499 12.2007 19.1083 11.8168 19.1146C12.4487 19.3921 13.0503 19.6265 13.6193 19.8178C14.3267 20.0547 14.9925 20.2282 15.6155 20.3359H20.5294C20.8856 20.3334 21.0304 20.1928 21.1223 20.0167C21.0279 20.0344 20.9297 20.0471 20.8277 20.0572C20.6515 20.0724 20.4942 19.9419 20.4791 19.7646C20.464 19.5872 20.5936 19.4288 20.7698 19.4137C21.1298 19.3795 21.4306 19.287 21.6711 19.1337L21.7239 19.0982L21.7252 19.0969H21.7264C21.7957 19.0488 21.8599 18.9943 21.919 18.9348C22.1934 18.6599 22.3633 18.2583 22.4288 17.7338C22.4414 17.6349 22.4967 17.5526 22.5748 17.5019C22.7447 17.3917 22.8983 17.2815 23.0317 17.1713C23.4735 16.8102 23.7353 16.4415 23.8158 16.0691C23.8939 15.7093 23.802 15.3254 23.5427 14.9187C23.481 14.8225 23.4106 14.7262 23.3338 14.6299C23.2444 14.5184 23.2406 14.3651 23.3136 14.2511C23.3841 14.1231 23.4508 13.9939 23.5125 13.866C23.8335 13.1932 23.9543 12.6295 23.875 12.1785C23.802 11.7604 23.5414 11.4247 23.0946 11.1713L22.9423 11.0915C22.7825 11.0142 22.7145 10.8216 22.7913 10.6607C22.8681 10.4998 23.0594 10.4314 23.2192 10.5087L23.4093 10.6075C24.0323 10.961 24.3999 11.4487 24.5094 12.0682C24.6126 12.6548 24.4729 13.3491 24.0915 14.1472L23.9656 14.3968L24.0852 14.5716C24.4414 15.1291 24.5622 15.6751 24.4464 16.2085C24.3344 16.7279 23.9971 17.2169 23.4382 17.6755C23.3174 17.7743 23.1865 17.8719 23.0468 17.9669C23.004 18.2215 22.9398 18.4547 22.853 18.6649L22.9184 18.6485C23.3665 18.5383 23.8234 18.4255 24.3621 17.9707C24.4074 17.9327 24.459 17.9099 24.5132 17.8998C25.2633 17.7655 25.9279 17.659 26.5912 17.5666C27.247 17.4741 27.904 17.3955 28.6442 17.3132C28.8204 17.2942 28.979 17.4234 28.9979 17.6008C29.0167 17.7781 28.8884 17.9378 28.7121 17.9568C27.9846 18.0366 27.3352 18.1164 26.6794 18.2076C26.0551 18.2951 25.4232 18.3951 24.707 18.5218C24.0865 19.0248 23.573 19.1515 23.0695 19.2744C22.7435 19.3542 22.4188 19.4353 22.0802 19.638L22.0399 19.6646C21.9329 19.7482 21.8712 19.8989 21.8108 20.0522L21.8045 20.0674C21.6258 20.5235 21.4458 20.9771 20.5395 20.9834H15.5953L15.5425 20.9783C14.8829 20.8656 14.1743 20.6819 13.4191 20.4285C12.6664 20.1764 11.8709 19.8559 11.0364 19.4682C10.5456 19.2731 10.2422 18.9842 10.105 18.6662C10.0094 18.4471 9.99299 18.2152 10.0471 17.9935C10.0987 17.782 10.2158 17.5818 10.3895 17.4108C10.4977 17.3031 10.6299 17.2068 10.7835 17.1257C10.3543 16.9673 9.92883 16.809 9.50843 16.6493C9.16481 16.5315 8.88915 16.2946 8.71547 15.9982C8.54179 15.7017 8.47129 15.3444 8.53548 14.9834C8.59841 14.6312 8.78344 14.3259 9.03895 14.1105C8.45618 13.8862 8.11005 13.5404 7.97536 13.173C7.8948 12.9526 7.88725 12.7245 7.94893 12.5079C8.00808 12.2988 8.13144 12.1025 8.31017 11.9403C8.63616 11.6413 9.16735 11.4386 9.85333 11.4526C9.84703 11.3512 9.85584 11.2498 9.87976 11.1485C9.93011 10.9357 10.0459 10.7254 10.2259 10.5391C10.5884 10.1654 11.2278 9.87273 12.1101 9.84235L12.1756 9.84108C12.7571 9.89175 13.3185 9.93736 13.861 9.97917L13.8295 9.9475C13.6961 9.81321 13.5841 9.65865 13.4998 9.48761C10.1013 9.68904 7.35369 9.68271 5.27439 9.46987C4.00061 9.33938 2.9685 9.12907 2.18054 8.8377C2.73308 9.62444 3.01 10.1996 2.58206 10.9585C1.1648 13.472 0.592078 15.8691 0.649981 17.948C0.712914 20.255 1.55497 22.1694 2.87786 23.407C3.0075 23.5286 3.01505 23.7339 2.89422 23.8644C2.77339 23.9949 2.56948 24.0025 2.43982 23.8809C0.996106 22.5291 0.0772893 20.454 0.00804373 17.9658C-0.0523729 15.7766 0.54551 13.2618 2.02319 10.6393C2.31772 10.1174 1.94893 9.61062 1.36112 8.80234C1.19246 8.5705 1.00616 8.31585 0.819883 8.03966C0.809813 8.02572 0.802261 8.00925 0.794709 7.99405L0.792191 7.99025L0.780863 7.96365C0.734293 7.85216 0.709117 7.74194 0.701568 7.63553V7.62666C0.685205 7.34288 0.792193 7.08316 1.01498 6.8488C1.20504 6.64863 1.4832 6.46493 1.84193 6.30656C2.68148 5.93284 4.01567 5.65665 5.74018 5.51602C5.67976 5.34372 5.62312 5.16384 5.57403 4.97758C5.23167 3.71703 5.13349 2.15116 5.45949 0.29628C5.4746 0.212666 5.52243 0.134118 5.59795 0.0834422C5.74521 -0.0153762 5.94533 0.0238996 6.04352 0.172126C6.29148 0.54205 6.41607 1.10329 6.57341 1.81149C6.90823 3.3229 7.40664 5.56133 9.56656 7.68468L9.93535 7.67581C9.79689 7.38316 9.59927 7.05885 9.38908 6.71296L9.37902 6.69649C8.89443 5.90215 8.34691 5.0052 8.18956 4.0018C7.89377 3.75476 7.58288 3.51152 7.25815 3.27334C7.20151 3.23153 7.16249 3.17579 7.14235 3.11371C6.99131 2.65891 7.01648 2.17242 7.21535 1.65678C7.40163 1.17535 7.74399 0.666067 8.24118 0.131451C8.36201 0.000962163 8.56466 -0.00537514 8.69429 0.116248C8.82393 0.23787 8.83023 0.441837 8.70939 0.572313C8.26885 1.04485 7.97054 1.48574 7.81448 1.88988C7.68484 2.22306 7.65589 2.53347 7.72638 2.81852C8.05865 3.0643 8.37459 3.31642 8.67667 3.57105L8.68297 3.57612L8.71192 3.60145L8.71821 3.60652C9.28712 4.09048 9.8032 4.58708 10.2664 5.1002C10.7107 5.59301 11.1072 6.10103 11.4558 6.62426C12.0361 6.67494 12.3948 6.98913 12.5282 7.56811L12.8051 7.55291C12.8039 6.76616 12.7535 6.12387 12.6503 5.6285C12.5471 5.13316 12.3998 4.805 12.2098 4.6454L12.2085 4.64414L12.2022 4.63907L12.1997 4.63654L12.1896 4.62894L12.1808 4.62133L12.1682 4.60866L12.1657 4.60486L12.1632 4.60233L12.162 4.5998L12.1569 4.59473L12.1531 4.58966V4.58839L12.1506 4.58459L12.1456 4.57953L12.1431 4.57573L12.1418 4.57446L12.138 4.56939V4.56812L12.1355 4.56432L12.133 4.55926L12.1305 4.55546V4.55419L12.128 4.54912L12.1267 4.54785L12.1242 4.54405L12.1192 4.53392V4.53265L12.1141 4.52252L12.1116 4.51998L12.1091 4.51238L12.1041 4.50225L12.1028 4.49845V4.49718L12.0952 4.47564L12.0927 4.46804V4.46677C11.914 3.9258 11.7227 3.47732 11.5188 3.12388C11.3237 2.78434 11.116 2.53098 10.902 2.36882C10.761 2.2624 10.7321 2.05843 10.8378 1.91655C10.8605 1.88614 10.8894 1.85954 10.9196 1.83927C11.3853 1.51115 11.7856 1.20074 12.1192 0.910628L12.1368 0.896692C12.4502 0.623044 12.6982 0.37093 12.8769 0.144162C12.9877 0.00480349 13.1903 -0.0192679 13.3288 0.0922186C13.4672 0.203705 13.4911 0.407676 13.3804 0.547019C13.3074 0.639503 13.2255 0.734517 13.1337 0.833335C13.1588 0.996765 13.2142 1.13992 13.2986 1.26154C13.4055 1.41484 13.5654 1.54152 13.7756 1.64162C13.8285 1.66315 13.8763 1.69863 13.9128 1.74803C14.0185 1.89119 13.9896 2.09516 13.8473 2.20157C13.4823 2.47522 13.2067 2.79447 13.0217 3.15554C12.8542 3.48113 12.7573 3.84473 12.7296 4.24634C12.9801 4.51365 13.1639 4.9292 13.2809 5.49168C13.398 6.05166 13.4534 6.77756 13.4483 7.66566C13.5541 7.71506 13.6762 7.75434 13.8146 7.78221C14.0223 7.82402 14.2665 7.84302 14.5446 7.83796C14.6277 7.79488 14.7133 7.75181 14.8001 7.71C14.5685 6.71423 14.7234 5.98197 15.2659 5.51449C15.2784 5.422 15.2948 5.33079 15.3124 5.23831C15.4748 4.39707 15.8348 3.5394 16.3886 2.66525L16.3999 2.64878C16.7398 2.1775 16.9462 1.75688 17.0154 1.39075C17.0783 1.06137 17.028 0.77123 16.8656 0.524192C16.7675 0.375966 16.809 0.174538 16.9563 0.0757165C17.1035 -0.0231018 17.3036 0.0187068 17.4018 0.166933C17.6611 0.560922 17.7429 1.00817 17.6485 1.50857C17.5604 1.97225 17.3175 2.47901 16.921 3.02757C16.4175 3.82444 16.0916 4.60233 15.9456 5.35865C15.8235 5.98956 15.826 6.60908 15.9518 7.2134C16.1658 7.13232 16.3861 7.05504 16.6139 6.97902C17.8638 6.5622 19.3302 6.22396 21.0116 5.96298L21.0045 5.9706ZM11.4713 17.5652C11.1969 17.6235 10.9829 17.7362 10.8419 17.8756C10.7551 17.9617 10.6972 18.0567 10.6733 18.1518C10.6531 18.2366 10.6594 18.3266 10.6959 18.4115C10.74 18.5141 10.8256 18.6142 10.9577 18.7054L11.2661 18.7421C11.864 18.8169 12.0956 18.846 12.2365 18.2709L12.2504 18.1898C12.263 18.053 12.2013 17.9351 12.0918 17.8389L12.0817 17.8313C11.9445 17.7172 11.7406 17.6298 11.504 17.5728L11.4989 17.5715L11.4687 17.5652L11.4713 17.5652ZM9.63359 14.4942C9.57317 14.5234 9.51527 14.5588 9.46367 14.6019C9.31389 14.7235 9.20438 14.8996 9.16914 15.1024C9.13264 15.3063 9.17291 15.509 9.27109 15.6762L9.27487 15.6813L9.81611 15.8371C10.2957 15.9676 10.4945 15.9461 10.6343 15.4229C10.7022 15.1682 10.6015 14.9807 10.4027 14.835L10.3926 14.8287C10.205 14.6944 9.9382 14.5893 9.63486 14.4955L9.63359 14.4942ZM9.30885 12.1492C9.06593 12.2037 8.87585 12.3 8.74371 12.4216C8.65434 12.5027 8.59393 12.5952 8.56875 12.6864C8.54484 12.7725 8.54735 12.8637 8.58008 12.9524C8.6342 13.0994 8.76385 13.2451 8.97657 13.3705C9.11503 13.3971 9.25222 13.425 9.39195 13.4452L9.39698 13.4465C9.89417 13.5225 10.2982 13.4985 10.3737 12.9879L10.38 12.922C10.3863 12.7928 10.351 12.6395 10.2176 12.5052C10.0678 12.3544 9.79722 12.2201 9.33529 12.1504L9.3076 12.1466L9.30885 12.1492ZM11.6538 10.5403C11.2069 10.6213 10.8822 10.7911 10.6871 10.9925C10.5914 11.0926 10.5298 11.1965 10.5071 11.2979C10.487 11.384 10.4945 11.4702 10.531 11.5474C10.5423 11.5702 10.5549 11.593 10.57 11.6158V11.6171L10.5851 11.6361L10.6179 11.6741C10.8621 11.6881 11.0785 11.7121 11.2711 11.7337C11.8728 11.8008 12.1912 11.835 12.2806 11.3789C12.3347 11.0964 12.2818 10.895 12.127 10.7581C12.0188 10.6618 11.8602 10.5909 11.6537 10.5415L11.6538 10.5403ZM15.62 8.05082C15.0032 8.3156 14.457 8.6057 13.9862 8.91864C14.0215 9.14162 14.131 9.33673 14.2833 9.49127C14.3223 9.53054 14.3651 9.56855 14.4104 9.60276C15.2701 9.40766 15.6955 9.07446 15.8428 8.7552L15.8466 8.7476C15.907 8.61204 15.9145 8.48028 15.8843 8.36626C15.8541 8.2535 15.7849 8.15595 15.693 8.09261C15.6703 8.07614 15.6452 8.0622 15.6187 8.0508L15.62 8.05082ZM11.7031 7.0145C11.8214 7.2058 11.9321 7.39964 12.0366 7.59475L12.1952 7.58588C12.1121 7.29957 11.9485 7.10951 11.7018 7.01325L11.7031 7.0145ZM15.0938 7.57574C15.1756 7.53901 15.2574 7.50227 15.3418 7.46553C15.236 7.01073 15.192 6.55083 15.2109 6.08462C14.9981 6.45328 14.9591 6.9499 15.0938 7.57574ZM13.3304 8.85277L13.3279 8.75649C13.3291 8.65387 13.377 8.55378 13.4663 8.49044L13.5947 8.40303C13.3832 8.35235 13.197 8.2814 13.0384 8.18892C12.1095 8.2434 11.2385 8.28267 10.4253 8.30927L10.4178 8.31054L10.3939 8.31181H10.3863C10.0691 8.32194 9.762 8.33081 9.46369 8.33714H9.42467C8.87338 8.34855 8.35354 8.35108 7.86263 8.34855H7.83872C7.2786 8.34475 6.75625 8.33081 6.27543 8.30801C4.49566 8.22312 3.2458 8.00395 2.5283 7.65303L2.50313 7.64036L2.49935 7.63783L2.49684 7.6353L2.49306 7.63276L2.49054 7.63023L2.48677 7.62769L2.48425 7.62516L2.48047 7.62263L2.47796 7.62009L2.47418 7.61756L2.47166 7.61503L2.46789 7.61249L2.46537 7.60996L2.46159 7.60742L2.4553 7.60109L2.45278 7.59982L2.44901 7.59602L2.44649 7.59476L2.41754 7.56562H2.41628L2.39111 7.53394L2.376 7.50861L2.37349 7.50227V7.50101L2.37097 7.49467V7.4934L2.36845 7.48707V7.4858L2.36593 7.47947V7.4782L2.36342 7.47187V7.4706L2.3609 7.46427V7.463L2.35838 7.45666V7.4554L2.35586 7.44906V7.4478L2.35335 7.44146V7.44019L2.35209 7.43386V7.43259L2.35083 7.42626V7.42499L2.34957 7.41866V7.41739L2.34831 7.41106V7.40979L2.34705 7.40345V7.40219L2.3458 7.39585V7.39459L2.34454 7.38825V7.38699L2.34328 7.38065V7.37938L2.34202 7.37305V7.32491L2.34328 7.31857V7.31731L2.34957 7.2793L2.35461 7.2641L2.35712 7.25776V7.25649L2.35964 7.25016V7.24889L2.36216 7.24256V7.24129L2.36468 7.23496L2.36593 7.23369L2.36845 7.22736L2.38481 7.19442L2.38733 7.19062L2.38985 7.18808L2.39237 7.18428L2.39488 7.18175L2.3974 7.17795L2.39992 7.17541L2.40244 7.17161L2.40495 7.16908L2.40747 7.16528L2.40999 7.16274L2.41251 7.15894L2.41502 7.15641L2.41754 7.15261L2.42383 7.14627L2.42509 7.14374L2.43013 7.13741L2.43516 7.13234H2.43642C2.6806 6.85616 3.27974 6.637 4.05005 6.5027C4.64287 6.40008 5.35782 6.338 6.09541 6.33293L6.00479 6.14543C4.25648 6.27466 2.92228 6.53942 2.11299 6.90049C1.83231 7.02592 1.62212 7.15894 1.49245 7.29578C1.39805 7.39586 1.35148 7.49595 1.35526 7.59097L1.3691 7.66951C2.03494 8.23708 3.36662 8.62475 5.34919 8.82745C7.36685 9.03395 10.0378 9.04282 13.3442 8.85025L13.3304 8.85277ZM3.44589 7.29955C4.11927 7.48071 5.07211 7.60107 6.30184 7.66062C6.52463 7.67076 6.7575 7.67962 6.99791 7.68596C6.80785 7.47819 6.62407 7.24381 6.4529 6.98282C5.62721 6.96762 4.8078 7.02843 4.14447 7.14245C3.87763 7.18933 3.641 7.24128 3.44589 7.29955ZM7.95958 7.70116C8.19244 7.70243 8.43286 7.70243 8.68081 7.69989C6.74999 5.58546 6.27294 3.43568 5.94318 1.95189L5.92052 1.84674C5.85255 2.98314 5.96332 3.97133 6.19114 4.80873C6.27295 5.11025 6.36987 5.39277 6.47811 5.65629L6.48189 5.66389L6.49951 5.7057C6.61783 5.98695 6.75125 6.24414 6.89475 6.4785L6.91615 6.5127C7.22956 7.0182 7.59082 7.41471 7.96086 7.70106L7.95958 7.70116ZM10.6217 7.65556L11.3177 7.62895C10.9024 6.90555 10.3914 6.20877 9.78719 5.53732C9.56567 5.29154 9.33279 5.05083 9.08736 4.81391C9.31266 5.35868 9.62985 5.87938 9.92314 6.35951L9.93321 6.37598C10.2114 6.83205 10.4682 7.25519 10.623 7.65554L10.6217 7.65556ZM12.2869 3.22528C12.3322 3.10239 12.3851 2.98204 12.4443 2.86674C12.6092 2.54622 12.8282 2.25484 13.1001 1.99259C12.9691 1.88871 12.8571 1.77215 12.7665 1.64167C12.7023 1.54919 12.6482 1.45037 12.6041 1.34649L12.5513 1.39336L12.5324 1.40983C12.268 1.63914 11.9559 1.8862 11.5959 2.14968C11.7621 2.33084 11.9207 2.55003 12.0679 2.80718C12.1422 2.93641 12.2152 3.07576 12.2857 3.22527L12.2869 3.22528ZM18.3109 10.1564L18.141 10.2096L18.4619 10.216L18.3109 10.1564Z" fill="#2A1101"/>
</g>
<defs>
<clipPath id="clip0_211_814">
<rect width="29" height="24" fill="white"/>
</clipPath>
</defs>
</svg>
