<svg width="48" height="48" viewBox="0 0 48 48" fill="none" xmlns="http://www.w3.org/2000/svg">
<g clip-path="url(#clip0_1937_9085)">
<rect width="48" height="48" rx="24" fill="#FDF4ED"/>
<path d="M31.0769 37.5228C30.7996 37.5747 30.4984 37.6518 30.4082 37.6951C30.1958 37.7956 30.1398 37.6873 30.2435 37.3755C30.3732 36.9858 30.3829 36.5674 30.2614 36.5674C30.1883 36.5674 30.2338 36.3977 30.4172 35.9889C30.5603 35.671 30.6602 35.3783 30.6393 35.3393C30.6184 35.3003 30.5029 35.2683 30.3821 35.2683C30.1279 35.2683 30.0802 35.0994 30.3307 35.0856C30.4231 35.0812 30.5633 35.0708 30.643 35.0639C30.8235 35.0483 31.1269 34.19 31.144 33.6435C31.1567 33.2564 31.2543 33.0866 31.3557 33.2763C31.4683 33.4885 31.5197 33.0087 31.5182 31.7563C31.5167 31.0513 31.4825 30.4459 31.4385 30.3575C31.3952 30.2718 31.3595 30.2501 31.358 30.3099C31.3535 30.5333 31.2282 30.406 31.1455 30.0934C31.0911 29.8864 31.0866 29.7582 31.1336 29.74C31.2618 29.6889 31.2126 29.3251 31.0546 29.1588C30.9211 29.0185 30.9077 29.0168 30.9502 29.1459C31.0463 29.4351 30.8674 29.2792 30.6691 28.8999C30.5178 28.6097 30.4939 28.5127 30.576 28.5127C30.684 28.5127 30.7168 28.4114 30.687 28.1698C30.6676 28.0173 30.4492 27.8181 30.3657 27.8779C30.274 27.9437 30.0765 27.7203 30.1175 27.5973C30.1585 27.4743 29.8886 27.1573 29.8156 27.2422C29.7887 27.2733 29.7246 27.2578 29.6724 27.2075C29.6001 27.1382 29.5882 27.1625 29.621 27.3167L29.6635 27.5167L29.4682 27.3089C29.3608 27.1954 29.2907 27.0689 29.3124 27.0282C29.3608 26.9364 28.8196 26.1743 28.7048 26.1743C28.5154 26.1743 28.3425 25.82 28.3641 25.4753C28.3783 25.2458 28.3343 25.038 28.2307 24.8422C28.048 24.4992 28.0354 24.2281 28.1845 23.8142C28.2441 23.6479 28.2694 23.4833 28.2404 23.4495C28.2113 23.4157 28.221 23.401 28.262 23.4166C28.4372 23.4824 28.8703 22.9082 28.918 22.5479C28.9299 22.4561 28.9754 22.3279 29.0186 22.2638C29.1499 22.0698 29.1909 21.7407 29.0962 21.6342C29.0477 21.5796 28.8561 21.409 28.6705 21.2557C28.3514 20.9915 28.3008 20.9777 27.7185 20.9907C27.1289 21.0037 27.0916 20.9924 26.8023 20.723C26.6286 20.5602 26.3066 20.3809 26.0397 20.2969C25.6066 20.161 25.5656 20.1263 25.3747 19.721C25.2629 19.4828 25.1712 19.2576 25.1697 19.2195C25.169 19.1814 25.254 19.0575 25.3591 18.9449C25.5119 18.7804 25.5462 18.6721 25.5268 18.408C25.5104 18.1759 25.4649 18.0693 25.3733 18.0485C25.2845 18.0295 25.2428 18.0754 25.2428 18.1932C25.2428 18.2607 25.1921 18.466 25.119 18.7068C25.2525 18.2616 25.2749 18.0018 25.1876 17.9186C25.2137 17.9117 25.2622 17.8745 25.3181 17.8156C25.4001 17.7298 25.4881 17.683 25.5134 17.7125C25.5894 17.8008 26.0494 17.3427 26.2224 17.0058C26.3118 16.8325 26.4833 16.5675 26.6048 16.4168C26.7256 16.2661 26.8023 16.0998 26.7748 16.0487C26.7472 15.9959 26.7762 15.9543 26.8411 15.9543C26.9052 15.9543 26.9574 15.989 26.9574 16.0314C26.9574 16.1379 28.4431 16.1241 28.672 16.0158C28.7749 15.9673 28.8919 15.9231 28.9329 15.9188C28.9739 15.9145 29.0783 15.8634 29.1648 15.8053C29.3004 15.7161 29.3467 15.7309 29.495 15.9145C29.7268 16.2012 29.8461 16.1838 30.1726 15.8131L30.45 15.4987L30.7049 15.6815L30.9591 15.8651L31.1149 15.6711C31.2007 15.5654 31.3423 15.284 31.4303 15.0466C31.6002 14.5833 31.7061 14.4586 31.8686 14.5278C31.9245 14.5521 32.0132 14.5313 32.0647 14.4819C32.1258 14.4222 32.2212 14.4196 32.345 14.4741C32.5552 14.5668 32.8728 14.391 32.7088 14.2732C32.4695 14.1017 32.8198 13.7891 33.2522 13.7891C33.4677 13.7891 34.0394 14.4014 34.0394 14.6318C34.0394 14.8648 34.155 14.9063 34.5076 14.8024C34.6634 14.7565 34.8125 14.7452 34.8393 14.7764C34.8669 14.8085 34.8535 14.9895 34.8095 15.1792C34.7193 15.5724 34.7476 15.6148 35.1554 15.6893C35.388 15.7317 35.4424 15.7958 35.6236 16.2289C35.7891 16.6264 35.8785 16.7399 36.088 16.8195C36.305 16.9027 36.3609 16.9789 36.4302 17.2812C36.4757 17.4804 36.5733 17.7212 36.6479 17.8164C36.7217 17.9117 36.8283 18.1845 36.8857 18.4227C37.0132 18.9605 37.1965 19.0272 37.491 18.6427C37.7452 18.3118 37.8414 18.3092 37.8414 18.6349C37.8414 18.8124 37.7825 18.9389 37.6476 19.0463C37.3598 19.2784 37.1705 19.4941 37.1705 19.5919C37.1705 19.7037 37.4463 20.025 37.5417 20.025C37.582 20.025 37.6356 19.9176 37.6602 19.7868C37.6856 19.656 37.7206 19.4863 37.7378 19.41C37.7557 19.3338 37.91 19.223 38.0807 19.1632C38.358 19.0671 38.402 19.0723 38.4892 19.21C38.6376 19.4464 38.607 19.585 38.3819 19.6993C38.2693 19.7565 38.0136 19.9314 37.8146 20.0873C37.6148 20.2432 37.4247 20.3714 37.3919 20.3714C37.2502 20.3714 37.0385 20.9422 37.0706 21.2375C37.1429 21.8949 37.1429 21.8949 37.5864 22.0187C37.8816 22.101 38.0278 22.1902 38.0785 22.3193C38.118 22.4206 38.2529 22.5488 38.3789 22.6033C38.5943 22.6978 38.604 22.722 38.5526 23.0312C38.522 23.2122 38.49 23.5543 38.4803 23.7925C38.4713 24.0307 38.4184 24.3477 38.3632 24.4966C38.2797 24.7218 38.2797 24.8136 38.3617 25.0431C38.4654 25.3359 38.9074 25.7412 39.1221 25.7412C39.2936 25.7412 39.4755 25.4234 39.5299 25.0267C39.5821 24.6499 39.6782 24.6092 39.7804 24.9202C39.8191 25.0397 39.9392 25.1765 40.0473 25.2242C40.2292 25.3047 40.2351 25.3238 40.1345 25.5048C40.0584 25.6416 40.0368 25.8564 40.0614 26.2384C40.0942 26.7572 40.086 26.7883 39.8549 27.0395C39.644 27.269 39.6201 27.3383 39.6626 27.6033C39.7073 27.8788 39.6827 27.9385 39.3793 28.2806C39.1586 28.5301 39.0178 28.7821 38.9604 29.0289L38.8739 29.4022L38.6815 29.087C38.4631 28.7301 38.2999 28.692 38.0986 28.951C37.8734 29.2394 38.0322 29.4169 38.5421 29.4481C38.809 29.4646 38.9812 29.5174 39.0051 29.5893C39.026 29.6534 38.8269 29.9617 38.5541 30.2865C38.2849 30.6061 38.065 30.9023 38.065 30.943C38.065 30.9846 37.9607 31.1561 37.8339 31.325C37.6573 31.5588 37.5447 31.6307 37.3568 31.6307C37.1652 31.6307 37.1026 31.6731 37.0698 31.8256C37.0467 31.933 36.8752 32.2153 36.6896 32.4535C36.5033 32.6917 36.3512 32.916 36.3504 32.9515C36.3504 32.987 36.2751 33.0173 36.1827 33.0182C35.9471 33.0199 35.848 33.1126 35.8174 33.3603C35.7868 33.608 35.4111 33.8999 35.3232 33.7422C35.1398 33.414 34.7253 33.6089 34.8095 33.9839C34.8677 34.2394 34.3704 35.1817 34.1781 35.1817C33.9776 35.1817 33.988 35.775 34.1938 36.0798C34.4196 36.4124 34.357 36.6012 34.0014 36.6593C33.6935 36.7095 33.2634 36.9338 33.1821 37.0862C33.1568 37.1347 33.0457 37.1737 32.9354 37.1746C32.8251 37.1746 32.6499 37.2266 32.547 37.2889C32.1534 37.5271 31.8671 37.6059 31.7218 37.5158C31.6256 37.4561 31.4198 37.4587 31.0769 37.5228ZM18.4716 37.5505C18.292 37.7393 18.0981 37.7306 17.8253 37.5202C17.7023 37.4258 17.5383 37.3478 17.4607 37.3478C17.3832 37.3469 17.1469 37.1755 16.9352 36.9659C16.6377 36.6705 16.508 36.5943 16.3589 36.6272C16.1897 36.6653 16.1308 36.6056 15.8773 36.1448C15.5553 35.5593 15.48 35.4978 15.2213 35.6121C14.994 35.7126 14.8814 35.5714 14.8292 35.1185C14.7725 34.6291 14.5668 34.3736 14.2857 34.4455C14.1396 34.4828 14.0606 34.468 14.0606 34.4057C14.0606 34.352 13.989 34.1961 13.9018 34.0592C13.7893 33.8817 13.7572 33.744 13.7922 33.5829C13.8377 33.3741 13.8086 33.3378 13.4284 33.136C13.0102 32.9134 12.8678 32.7324 12.8678 32.4232C12.8678 32.3288 12.7791 32.1763 12.6703 32.0845C12.5041 31.9434 12.4571 31.8039 12.3699 31.189C12.3132 30.7888 12.2342 30.2467 12.1947 29.9851C12.1552 29.7235 12.1418 29.3658 12.1656 29.1918C12.1932 28.9822 12.1656 28.7812 12.0843 28.5976C11.9539 28.304 11.9859 27.9065 12.1403 27.9065C12.1895 27.9065 12.1552 27.8458 12.0642 27.7714C11.854 27.6007 11.8562 27.5107 12.0806 27.1694C12.1805 27.0178 12.2633 26.7797 12.2648 26.642C12.273 25.8902 12.3184 25.6919 12.6681 24.8985C12.7911 24.6179 12.9364 24.5867 13.014 24.8232C13.0639 24.9765 13.1534 25.0388 13.3658 25.0691C13.5224 25.0925 13.6976 25.0674 13.7542 25.0146C13.8116 24.9617 13.9786 24.8786 14.1255 24.8292C14.4751 24.7132 14.6495 24.378 14.5243 24.0601C14.4587 23.8921 14.3812 23.8358 14.2157 23.8358C14.0942 23.8358 13.9741 23.7968 13.9488 23.7492C13.9234 23.7016 13.8116 23.6626 13.6998 23.6626C13.4732 23.6626 13.2406 23.3075 13.2406 22.9628C13.2406 22.8554 13.1854 22.696 13.1176 22.6094C13.0013 22.4596 12.9901 22.4596 12.8977 22.6025C12.8052 22.7454 12.7888 22.7454 12.5674 22.6016C12.4392 22.5185 12.2737 22.45 12.1999 22.45C11.9658 22.45 11.8682 22.2266 12.0038 22.0014C12.0694 21.8931 12.1224 21.7321 12.1224 21.6428C12.1224 21.5536 12.1895 21.3709 12.2715 21.2375C12.4481 20.9491 12.3982 20.7179 12.1604 20.7179C12.015 20.7179 11.983 20.659 11.9382 20.3134C11.9069 20.0709 11.9241 19.7088 11.9807 19.4118C12.0642 18.9735 12.1008 18.9086 12.2826 18.8661C12.4295 18.8324 12.5346 18.7163 12.6442 18.4651C12.8216 18.0615 13.0013 17.9593 13.4366 18.0122C13.6938 18.0433 13.7639 18.0165 13.8653 17.8485C13.9316 17.7385 13.9861 17.4812 13.9861 17.2768C13.9861 16.9971 14.0353 16.8412 14.1859 16.6455C14.3029 16.493 14.4334 16.403 14.5027 16.4281C14.5668 16.4515 14.7032 16.4151 14.8061 16.3484C15.3563 15.9881 15.732 15.8001 15.8222 15.8409C15.8781 15.866 15.9243 15.8383 15.9243 15.7802C15.9243 15.7092 15.9914 15.6927 16.1293 15.73C16.2419 15.7612 16.5692 15.7958 16.8562 15.8079C17.1894 15.8227 17.5122 15.898 17.7507 16.0175C17.9557 16.1206 18.2808 16.254 18.4724 16.3137C18.7094 16.3865 18.8458 16.4852 18.8995 16.6212C18.9428 16.7303 19.0285 16.8204 19.0911 16.8204C19.2894 16.8204 19.3118 16.8421 19.5399 17.2535C19.7993 17.7212 19.9268 17.8796 20.1564 18.0226C20.2481 18.0789 20.3226 18.1637 20.3226 18.2105C20.3226 18.3274 20.8579 18.9302 20.9831 18.9536C21.1002 18.9761 21.5899 19.5737 21.5899 19.6941C21.5899 19.7374 21.5407 19.8838 21.4811 20.0189C21.3678 20.2727 21.2306 20.3714 20.9898 20.3714C20.9131 20.3714 20.7282 20.4953 20.5798 20.6468C20.4315 20.7975 20.1564 20.9673 19.9678 21.0227C19.6644 21.1119 19.6129 21.163 19.5235 21.4618C19.4676 21.648 19.4392 21.8802 19.4601 21.978C19.5034 22.1798 19.9939 22.4908 20.0632 22.3608C20.1422 22.2119 20.2831 22.2725 20.3718 22.4942C20.4382 22.6605 20.4367 22.7099 20.3681 22.7099C20.3182 22.7099 20.2459 22.6726 20.2056 22.6259C20.1594 22.5722 20.1385 22.6484 20.146 22.8398C20.1549 23.0589 20.2287 23.2157 20.427 23.4322C20.6216 23.6453 20.6991 23.8072 20.7088 24.0194C20.7326 24.5417 20.6894 24.8855 20.5485 25.3021C20.4717 25.5273 20.4151 25.7811 20.4218 25.8659C20.4285 25.9508 20.3845 26.0504 20.3226 26.0868C20.2608 26.1232 20.0766 26.2323 19.9126 26.3302C19.6204 26.5034 19.5779 26.5207 19.4303 26.5207C19.39 26.5207 19.3065 26.635 19.2439 26.7753C19.1381 27.0135 19.1403 27.0326 19.2797 27.0837C19.4609 27.1504 19.4676 27.2413 19.3036 27.3981C19.1917 27.5046 19.1835 27.4951 19.2245 27.3089C19.2655 27.1235 19.2395 27.1365 18.9838 27.4266C18.8257 27.6059 18.6513 27.7341 18.5961 27.7116C18.5409 27.6891 18.4373 27.7047 18.3658 27.748C18.2092 27.8415 18.2129 28.4253 18.3702 28.4261C18.4239 28.4261 18.4455 28.4686 18.4179 28.5205C18.3814 28.5881 18.3449 28.5881 18.2867 28.5205C18.1466 28.3577 18.0146 28.4166 17.8618 28.7076C17.6866 29.0402 17.6635 29.4654 17.8201 29.4654C17.8708 29.4654 17.9282 29.4083 17.9602 29.3329C17.9237 29.4499 17.9393 29.5486 18.0079 29.5521C17.9192 29.5928 17.782 29.5971 17.7299 29.5365C17.6859 29.4854 17.5837 29.5598 17.4563 29.7357C17.296 29.9574 17.2624 30.0726 17.2982 30.2822C17.3116 30.3627 17.3221 30.4156 17.3288 30.4693C17.3459 30.6139 17.3348 30.7637 17.2833 31.454C17.2781 31.5198 17.2729 31.5917 17.2677 31.6679C17.208 32.4699 17.2155 32.6588 17.3154 32.9039C17.4056 33.1238 17.4563 33.1706 17.5293 33.1005C17.6501 32.9844 17.6933 33.0658 17.7396 33.4963C17.7597 33.6851 17.8163 33.9666 17.8648 34.1225C17.9326 34.3416 17.9326 34.4342 17.8633 34.5313C17.7917 34.6309 17.8171 34.8136 17.9848 35.4173C18.116 35.8902 18.1868 36.3128 18.1727 36.5345C18.1503 36.8654 18.166 36.8992 18.3784 36.9849C18.6423 37.0923 18.6818 37.3287 18.4716 37.5505ZM31.7583 36.4878C32.1728 36.4029 32.4739 36.2089 32.4739 36.0261C32.4739 35.9811 32.6074 35.768 32.7706 35.5524C32.9339 35.3367 33.0532 35.1332 33.0353 35.0994C33.0174 35.0656 33.1016 34.8075 33.2224 34.5252C33.3439 34.2428 33.4423 33.9674 33.4431 33.912C33.4431 33.8211 33.6063 33.5612 34.1475 32.7878C34.2519 32.6388 34.3376 32.4717 34.3376 32.4171C34.3376 32.3625 34.486 32.243 34.6679 32.1529C34.8498 32.0629 35.0391 31.8992 35.0898 31.7892C35.1398 31.6801 35.2561 31.5224 35.347 31.4393C35.4387 31.3553 35.5341 31.1569 35.5602 30.9976C35.6169 30.6442 35.8756 30.3004 36.0321 30.3705C36.1834 30.4381 36.3631 30.2553 36.3169 30.0812C36.2968 30.0042 36.3221 29.7469 36.3743 29.5087C36.4488 29.1675 36.5174 29.0471 36.6956 28.9423C36.8208 28.8687 37.0504 28.686 37.207 28.5361L37.4918 28.2633L37.2748 27.7731C37.1563 27.5037 36.9558 27.1512 36.8298 26.9884C36.6359 26.739 36.551 26.6939 36.2766 26.6939C36.0821 26.6939 35.8987 26.6376 35.8182 26.5536C35.7444 26.4757 35.5997 26.4124 35.4969 26.4124C35.2546 26.4124 35.1308 26.2332 35.177 25.9517C35.2024 25.7949 35.1778 25.7144 35.0928 25.6832C34.5389 25.4797 34.4256 25.3419 34.5643 25.0423C34.6284 24.9028 34.5971 24.8301 34.3779 24.6066C34.0819 24.3044 34.0454 24.0619 34.2579 23.7977C34.3615 23.6686 34.4219 23.4036 34.4755 22.8398C34.5635 21.92 34.4756 21.6411 34.0171 21.3882C33.7741 21.254 33.7413 21.1985 33.7413 20.9231C33.7413 20.6997 33.6779 20.5264 33.5176 20.3151C33.2455 19.9548 33.241 19.8518 33.4818 19.5192L33.6697 19.2593L33.452 19.0792C33.332 18.9805 33.1382 18.8982 33.0219 18.8973C32.8936 18.8964 32.7095 18.7942 32.5567 18.6375C32.418 18.4954 32.2838 18.3794 32.2585 18.3785C32.2339 18.3785 32.1556 18.2616 32.0863 18.1187C32.0103 17.9645 31.8977 17.8597 31.8075 17.8597C31.7113 17.8597 31.5868 17.7324 31.4675 17.5133C31.3639 17.3227 31.2342 17.1668 31.1783 17.1668C31.1231 17.1668 30.901 17.082 30.6855 16.978L30.2942 16.7884L29.9863 16.978C29.6188 17.2041 29.58 17.2076 29.4078 17.0274C29.2937 16.907 29.2095 16.9001 28.8166 16.9806C28.4901 17.0482 28.2523 17.0482 27.9862 16.9815C27.6268 16.8923 27.606 16.8975 27.3786 17.1478C27.2496 17.2898 27.0208 17.4717 26.8709 17.5523C26.7114 17.638 26.5623 17.7991 26.5116 17.9411C26.402 18.2495 26.4803 18.7535 26.6674 18.951C26.7464 19.0342 26.7941 19.1632 26.774 19.2386C26.7539 19.3139 26.7613 19.4152 26.7912 19.4637C26.9067 19.6526 27.2608 19.8518 27.4792 19.8518C27.726 19.8518 28.3626 20.1895 28.5132 20.4017C28.5684 20.4779 28.8047 20.5568 29.088 20.5923C29.3519 20.6252 29.5867 20.6849 29.6083 20.7265C29.6299 20.7672 29.6091 20.885 29.5614 20.9889C29.4965 21.1293 29.4958 21.2583 29.5591 21.5025C29.6314 21.7832 29.6188 21.907 29.4674 22.3912C29.3713 22.7004 29.1856 23.1091 29.0559 23.2997C28.9262 23.4894 28.7987 23.776 28.7734 23.9354C28.7473 24.0948 28.6742 24.3303 28.6109 24.4594C28.5169 24.6482 28.5125 24.7357 28.584 24.9176C28.6325 25.0414 28.672 25.2501 28.672 25.3809C28.672 25.5464 28.7607 25.7126 28.9635 25.93C29.1238 26.1015 29.2848 26.2557 29.3206 26.273C29.3563 26.2903 29.4622 26.4306 29.5554 26.5857C29.6493 26.7407 29.7835 26.8672 29.8536 26.8672C30.0653 26.8672 30.2897 27.1053 30.3367 27.3799C30.3672 27.554 30.4582 27.6856 30.614 27.7783C30.7526 27.8623 30.8905 28.0459 30.9584 28.2373C31.021 28.4123 31.1552 28.6349 31.2573 28.7319C31.4027 28.8678 31.4482 29.0021 31.4653 29.3381C31.478 29.5746 31.5563 29.9167 31.639 30.0977C31.7478 30.3333 31.7747 30.4926 31.7337 30.6607C31.7024 30.7888 31.6867 31.4402 31.6994 32.107C31.7188 33.1368 31.7009 33.3785 31.5816 33.7093C31.3937 34.2324 31.2066 34.9591 31.2066 35.1661C31.2066 35.3887 31.0106 35.9257 30.819 36.2262C30.5946 36.5778 30.6758 36.7381 31.0329 36.6489C31.1902 36.6099 31.516 36.538 31.7583 36.4878ZM16.4663 34.4888C16.6176 34.2827 16.9836 34.2593 17.1439 34.4455C17.3236 34.6542 17.4153 34.5971 17.4153 34.2766C17.4153 34.0419 17.3437 33.8903 17.0805 33.5664L16.7458 33.1542L16.7578 32.4578C16.7719 31.6082 16.7153 31.3717 16.4968 31.3691C16.4074 31.3683 16.2516 31.2929 16.1502 31.202C15.9713 31.0435 15.9698 31.0322 16.0988 30.8668C16.1726 30.7724 16.344 30.6711 16.4812 30.6407C16.7801 30.5758 16.8293 30.4545 16.7771 29.9106C16.7451 29.5772 16.7749 29.4091 16.9307 29.048C17.0373 28.8011 17.1678 28.5993 17.22 28.5993C17.3437 28.5993 17.5927 28.2772 17.7224 27.9498C17.8163 27.7116 18.0623 27.5211 18.6133 27.2569C18.7459 27.1937 18.7877 27.1157 18.7698 26.9668C18.7228 26.5796 18.9047 26.2669 19.308 26.04C19.8589 25.73 19.9089 25.6667 20.0476 25.0856C20.2444 24.2645 20.2183 23.8661 19.9499 23.5924C19.8269 23.4668 19.7263 23.3127 19.7263 23.2503C19.7263 23.0044 19.4586 22.6865 19.0494 22.4466C18.8123 22.308 18.5983 22.1183 18.573 22.0248C18.5372 21.8949 18.4321 21.8412 18.1212 21.7961C17.4704 21.7017 17.2319 21.7927 16.9307 22.2508C16.6817 22.6293 16.6743 22.6614 16.7831 22.8554C16.8919 23.0477 16.8867 23.071 16.6907 23.2685C16.5035 23.4582 16.4931 23.4972 16.5833 23.6686C16.6676 23.828 16.6676 23.8713 16.5833 23.9328C16.5281 23.9735 16.4536 24.0073 16.4178 24.0073C16.382 24.0082 16.3738 24.1649 16.3999 24.3555C16.4297 24.5677 16.4186 24.7019 16.3723 24.7019C16.2799 24.7019 16.271 25.3662 16.3627 25.432C16.3992 25.458 16.3738 25.6546 16.3075 25.8694C16.1964 26.2297 16.1964 26.2903 16.3097 26.6714C16.3776 26.9018 16.4148 27.2093 16.3932 27.3669C16.3634 27.5808 16.4037 27.7376 16.555 28.0026C16.833 28.4911 16.7719 28.621 16.2985 28.5482C15.9869 28.4997 15.9243 28.5136 15.9243 28.6262C15.9243 28.7015 15.9564 28.7856 15.9959 28.8133C16.0369 28.8436 16.0414 28.9449 16.0056 29.0566C15.9549 29.216 15.8818 29.2515 15.5799 29.2645C15.3801 29.2732 15.1595 29.2853 15.0909 29.2922C14.8859 29.3113 14.5839 29.0298 14.4274 28.673C14.3469 28.4894 14.2462 28.3395 14.203 28.3395C14.0062 28.3395 13.837 28.5327 13.837 28.7587C13.837 28.8904 13.796 29.0454 13.746 29.1034C13.6759 29.1848 13.6745 29.2481 13.7401 29.3693C13.787 29.4577 13.8653 29.7002 13.913 29.9089C14.0286 30.4104 14.0875 30.4805 14.455 30.5524C14.9999 30.6589 15.3085 31.0288 14.9448 31.1396C14.8083 31.1803 14.7912 31.2323 14.8277 31.4938C14.8516 31.6627 14.8396 31.823 14.8009 31.8507C14.6794 31.9382 14.7263 32.2907 14.8806 32.4535C14.9962 32.5756 15.0297 32.7202 15.0297 33.1022C15.0297 33.3724 15.0536 33.6218 15.0827 33.6556C15.1117 33.6894 15.1259 33.8678 15.1147 34.0514C15.0916 34.4204 15.1714 34.4879 15.5888 34.4585C15.7119 34.4498 15.8788 34.4923 15.9593 34.552C16.1681 34.7079 16.3187 34.6889 16.4663 34.4888ZM22.6366 17.0802C22.5173 17.0802 22.3727 17.1357 22.3138 17.2041C22.2214 17.3115 22.1714 17.2933 21.9366 17.0681C21.6213 16.7658 21.1345 16.5562 21.3044 16.7953C21.3931 16.9209 21.3864 16.9243 21.2358 16.8317C21.1434 16.7745 21.0681 16.7503 21.0681 16.7771C21.0681 16.804 21.001 16.7849 20.919 16.7338C20.837 16.6827 20.7699 16.5822 20.7699 16.5103C20.7699 16.2886 20.5485 15.8677 20.4322 15.8677C20.2302 15.8677 20.3018 15.3784 20.547 15.0865C20.6708 14.9401 20.8012 14.8405 20.837 14.8665C20.8728 14.8925 20.9436 14.8552 20.9943 14.7842C21.0629 14.6872 21.0644 14.6552 20.998 14.6552C20.9496 14.6552 20.928 14.6223 20.9496 14.5815C21.0413 14.4083 20.7774 14.1788 20.4807 14.1736C20.1974 14.1684 19.8753 13.9562 19.8753 13.7761C19.8753 13.7354 19.9931 13.5518 20.1363 13.3673C20.2824 13.1802 20.3972 12.9403 20.3972 12.8234C20.3972 12.3219 20.6775 12.1651 21.6518 12.1192C21.9299 12.1054 22.0775 12.0551 22.1446 11.9495C22.2676 11.7529 23.0541 11.6238 23.517 11.7243C23.7071 11.7659 23.9032 11.7814 23.9539 11.7589C24.0634 11.7096 24.2737 11.9339 24.2737 12.1002C24.2737 12.1643 24.3519 12.289 24.4481 12.3773C24.6874 12.5956 24.7955 12.8563 24.7955 13.214C24.7955 13.3993 24.8611 13.6106 24.9655 13.7605C25.1198 13.9831 25.134 14.0853 25.1213 14.8717C25.0982 16.2176 24.7374 17.0941 24.2133 17.0716C23.9032 17.0586 23.6408 16.9529 23.6311 16.8377C23.6259 16.7806 23.6169 16.6758 23.6117 16.6048C23.6072 16.5346 23.4872 16.4203 23.347 16.3519C23.2061 16.2834 23.0399 16.1128 22.9765 15.9716C22.9139 15.8313 22.732 15.6408 22.5725 15.549C22.2967 15.3905 22.284 15.3896 22.3183 15.5394C22.3377 15.6261 22.407 15.6867 22.4719 15.6746C22.5397 15.6607 22.6344 15.7551 22.6925 15.8945C22.7492 16.0279 22.8796 16.1743 22.9825 16.2202C23.0958 16.2704 23.1555 16.3501 23.1316 16.4211C23.11 16.4861 23.1301 16.5831 23.1763 16.6368C23.2382 16.7087 23.2278 16.7338 23.1361 16.7338C23.0675 16.7338 22.9758 16.8117 22.9318 16.907C22.8804 17.0187 22.776 17.0802 22.6366 17.0802ZM38.3632 17.1452C38.3632 17.2205 38.2 17.4605 37.9994 17.6796L37.6364 18.0763L37.5536 17.7108C37.4709 17.3461 37.5014 17.1357 37.705 16.6714L37.7892 16.48L38.0762 16.7442C38.2343 16.8897 38.3632 17.0698 38.3632 17.1452ZM12.2715 22.0291C12.2715 22.3149 12.2938 22.3721 12.3893 22.3297C12.4541 22.3002 12.5831 22.2768 12.6755 22.2768C12.8246 22.2768 12.8447 22.2327 12.8492 21.8871C12.8537 21.5545 12.8328 21.4973 12.7068 21.4973C12.4034 21.4973 12.2715 21.6584 12.2715 22.0291ZM35.6638 35.0838C35.64 35.2311 35.2725 35.3315 35.2121 35.2085C35.1204 35.0189 35.0868 34.662 35.1614 34.662C35.2061 34.662 35.2933 34.604 35.3545 34.5321C35.4163 34.4602 35.4976 34.4022 35.5356 34.4022C35.5736 34.4022 35.605 34.4602 35.605 34.5321C35.605 34.604 35.5692 34.662 35.5252 34.662C35.4812 34.662 35.4998 34.7253 35.5662 34.8023C35.6325 34.8794 35.6765 35.0067 35.6638 35.0838ZM16.7503 44.675C16.7361 44.6992 16.7399 44.7261 16.7645 44.7573C16.6392 44.6542 16.6161 44.5676 16.6758 44.4836C16.7421 44.3909 16.7414 44.3623 16.6743 44.3623C16.6258 44.3623 16.6057 44.3268 16.6288 44.2827C16.6519 44.2385 16.5453 44.1562 16.391 44.099C16.3492 44.0835 16.3023 44.0653 16.2538 44.0462C16.4059 44.1042 16.5587 44.1527 16.7071 44.19C16.8107 44.216 16.918 44.2445 17.0246 44.274C17.1663 44.3156 17.3221 44.3632 17.4525 44.4056C17.5144 44.4264 17.5778 44.4464 17.6434 44.4663C17.6613 44.4723 17.6784 44.4784 17.6948 44.4845C17.7328 44.4992 17.7634 44.507 17.7873 44.5087C17.9803 44.5641 18.1891 44.6196 18.409 44.6733C18.4992 44.7027 18.608 44.733 18.7325 44.7633C18.7504 44.7763 18.7728 44.7885 18.8004 44.798C18.6714 44.7971 18.5395 44.8214 18.4612 44.8785C18.3546 44.9565 18.359 45.0084 18.5074 45.0639C18.4567 45.0491 18.415 45.0362 18.3844 45.0249C18.2748 44.9842 18.1086 44.9348 17.9237 44.8863C18.0504 44.901 18.0914 44.8725 18.1347 44.804C18.2077 44.6897 18.1585 44.6481 17.7992 44.5252C17.5673 44.4455 17.2945 44.3589 17.1916 44.332C17.0887 44.3052 16.9747 44.2723 16.9382 44.2575C16.9009 44.2437 16.8599 44.3156 16.8465 44.4178C16.8301 44.5425 16.8614 44.5945 17.1111 44.6767C16.8793 44.623 16.7585 44.6274 16.7503 44.675ZM38.0233 34.9418C38.0061 34.9513 37.989 34.9608 37.9718 34.9712C37.9428 34.9877 37.9137 35.0041 37.8854 35.0206C37.4768 35.2536 37.1406 35.5221 36.8708 35.833C36.8514 35.8555 36.832 35.8772 36.8126 35.8988C36.8335 35.8754 36.8544 35.8512 36.8745 35.8269C37.0989 35.5619 37.4247 35.2718 37.5991 35.1817C37.9338 35.0093 37.9726 34.9357 37.8242 34.7634C37.7512 34.6785 37.7631 34.6464 37.8802 34.6066C37.9502 34.5832 38.1545 34.3338 38.4251 33.9553C38.2134 34.2784 38.0732 34.5269 38.0934 34.5503C38.118 34.5798 38.2246 34.5581 38.3289 34.5027C38.5638 34.3788 38.6614 34.3754 38.6614 34.4914C38.6614 34.5001 38.6525 34.5131 38.6368 34.5295C38.5093 34.6352 38.2708 34.7963 38.0233 34.9418ZM11.0675 11.0738C11.0616 11.0695 11.0526 11.0661 11.0414 11.0635C11.0042 11.0487 10.943 11.047 10.8737 11.0591C9.53183 11.3042 9.27017 11.3588 8.49711 11.5511C8.46431 11.5597 8.43449 11.5667 8.4069 11.5727C8.59998 11.506 8.88774 11.4419 9.34323 11.3501C9.64813 11.2878 9.89861 11.1908 9.92023 11.1258C9.94855 11.0392 9.89712 11.021 9.71671 11.0531C9.37603 11.1137 9.05845 11.1492 8.83481 11.1561C9.08305 11.1431 9.48338 11.0903 10.0723 10.9968C10.4003 10.9439 10.7693 10.8911 10.8923 10.8798C10.981 10.8712 11.0698 10.8617 11.1227 10.8556C11.0973 10.8807 11.0787 10.9422 11.0787 11.0141C11.0787 11.0262 11.075 11.047 11.0675 11.0738ZM15.9228 15.1965C15.9236 15.232 15.7066 15.2614 15.4398 15.2614C15.0588 15.2614 14.9552 15.2337 14.9552 15.1315C14.9552 15.0596 14.9805 14.9981 15.0111 14.9938C15.6671 14.9063 15.9191 14.9626 15.9228 15.1965ZM25.6506 9.71494C25.7236 9.85092 25.6416 9.8232 25.506 9.66557C25.4031 9.54605 25.4001 9.49841 25.4851 9.34078C25.5395 9.23858 25.579 9.06623 25.573 8.9571C25.5656 8.83758 25.6208 8.72239 25.7117 8.66609C25.8548 8.57689 25.8593 8.59074 25.8131 8.98482C25.7863 9.21174 25.7281 9.44905 25.6834 9.51141C25.6394 9.5729 25.6245 9.66471 25.6506 9.71494ZM15.4338 18.3205C15.2795 18.1888 14.9835 18.1689 14.9224 18.285C14.8299 18.4582 14.9776 18.6306 15.2415 18.6557C15.5523 18.686 15.6544 18.5076 15.4338 18.3205ZM25.2801 35.9612C25.2257 36.0625 23.9509 36.0625 23.6773 35.9612C23.5603 35.9179 23.8331 35.8884 24.4086 35.8832C25.0028 35.878 25.3099 35.9049 25.2801 35.9612ZM29.0924 38.401C29.1976 38.4252 29.2005 38.4443 29.1126 38.5222C29.0008 38.621 28.7219 38.5889 28.7779 38.4841C28.7957 38.4504 28.6959 38.4382 28.555 38.4573C28.2076 38.504 28.2284 38.336 28.5788 38.2685C28.965 38.1949 29.0604 38.2 29.0112 38.2927C28.9873 38.3369 29.0246 38.3863 29.0924 38.401ZM12.6077 40.9568C12.7232 41.0036 12.844 41.0512 12.9625 41.098C12.9715 41.1023 12.9812 41.1058 12.9909 41.1101C12.6576 40.9915 12.3818 40.8979 12.3468 40.8979C12.2908 40.8979 12.2894 40.9482 12.3423 41.0634C12.3781 41.1413 12.5249 41.2366 12.7657 41.3405C12.7158 41.3206 12.6651 41.3007 12.6159 41.2808C12.3356 41.1682 12.1201 41.0868 11.9658 41.04C11.8935 40.9949 11.8026 40.9759 11.7422 40.9889C11.7668 40.9586 11.7973 40.9248 11.8301 40.8919L11.9845 40.736L11.7645 40.6035C11.7839 40.6121 11.8041 40.6199 11.8249 40.6286C11.8965 40.6728 12.0053 40.7178 12.0985 40.742C12.1552 40.7663 12.2133 40.7905 12.2715 40.8157C12.3647 40.8564 12.4727 40.9014 12.5868 40.9482C12.5928 40.9534 12.6002 40.956 12.6077 40.9568ZM35.9613 40.2276C35.9591 40.2284 35.9561 40.2293 35.9538 40.2302C35.6146 40.3817 35.1092 40.5567 34.5426 40.7265C34.5986 40.6918 34.6358 40.6468 34.6358 40.6069C34.6358 40.5255 34.524 40.5073 34.398 40.5299C34.861 40.3999 35.3202 40.2553 35.7809 40.0959L36.5912 39.8153L37.2033 38.9925C37.283 38.886 37.3583 38.7829 37.4299 38.6842C37.3538 38.7899 37.2778 38.8947 37.2047 38.9925L36.5912 39.8153L35.7555 40.1141C35.189 40.3168 34.9638 40.432 35.057 40.4701C35.1331 40.5013 35.3761 40.4545 35.5982 40.3662C35.7854 40.2908 35.8964 40.2449 35.9613 40.2276ZM21.8867 17.3279C21.8852 17.5419 21.792 17.6545 21.6459 17.619C21.499 17.5834 21.4722 17.3383 21.5989 17.1911C21.7092 17.0629 21.8881 17.1478 21.8867 17.3279ZM33.6928 40.9638C33.569 40.9949 33.4431 41.0253 33.3156 41.0547C33.5482 40.9863 33.6667 40.9274 33.6667 40.878C33.6667 40.7983 33.6578 40.7836 32.6372 40.9516C33.1896 40.8416 33.7301 40.7135 34.2668 40.5662C34.1587 40.6078 34.0655 40.6728 34.0536 40.7472C34.0439 40.807 34.0514 40.8468 34.0752 40.8607C33.9492 40.8962 33.821 40.93 33.6928 40.9638ZM25.2801 29.6387C25.3099 29.5824 24.8917 29.5555 24.0731 29.5624C23.3329 29.5685 22.9117 29.5997 23.0436 29.6387C23.1376 29.6664 23.3463 29.6863 23.599 29.6993C23.3016 29.6872 23.0257 29.6664 22.8356 29.6387C22.1796 29.5408 22.2184 29.4334 22.8871 29.4966C23.2114 29.5269 23.8927 29.5521 24.4012 29.5521C24.999 29.5521 25.3099 29.5824 25.2801 29.6387ZM36.1656 22.2803C36.2103 22.3634 36.293 22.3349 36.4764 22.1703C36.586 22.0724 36.5204 21.8438 36.3825 21.8438C36.2595 21.8438 36.1022 22.1599 36.1656 22.2803ZM19.4452 45.2769C19.32 45.2518 19.1999 45.2267 19.0881 45.2025C19.2529 45.2302 19.279 45.2094 19.279 45.1418C19.279 45.0942 19.2432 45.0552 19.1999 45.0552C19.1567 45.0552 19.1396 45.0206 19.1627 44.9773C19.191 44.9236 19.1515 44.8785 19.0769 44.8473C19.0874 44.8482 19.0986 44.8482 19.109 44.8491C19.554 44.9426 20.1132 45.037 20.7103 45.1219C20.7356 45.1306 20.7669 45.1384 20.8035 45.1462C20.4948 45.1037 20.1832 45.0569 19.8679 45.005C19.5816 44.9582 19.5168 44.9738 19.475 45.1011C19.4482 45.1817 19.4355 45.2587 19.4452 45.2769ZM20.1885 43.4928C20.1102 43.4789 20.0304 43.4651 19.9499 43.4503C19.5734 43.3828 19.1649 43.2979 18.7355 43.1992C18.8876 43.2277 18.942 43.2234 18.9823 43.194C19.0016 43.1792 19.018 43.1585 19.0404 43.1325C19.1194 43.0407 19.1433 42.9792 19.1075 42.9402C19.3781 42.9878 19.6815 43.0519 19.8753 43.1048C20.1422 43.1775 20.5358 43.2407 20.7513 43.2451C20.5358 43.2407 20.1437 43.1827 19.8791 43.1178C19.4847 43.0199 19.3811 43.019 19.3013 43.1117C19.153 43.284 19.1768 43.3074 19.5585 43.3724C19.7531 43.4053 19.9797 43.4469 20.0617 43.4651C20.1057 43.4746 20.1519 43.485 20.1996 43.4945L20.1885 43.4928ZM38.5966 27.5063C38.6622 27.6735 38.7039 27.7073 38.7479 27.6276C38.8888 27.3695 38.7434 26.9971 38.5764 27.1911C38.531 27.2439 38.5377 27.3574 38.5966 27.5063ZM37.857 37.3192C37.7728 37.353 37.6751 37.3928 37.5641 37.4396C37.6416 37.3902 37.6789 37.3469 37.6692 37.3123C37.6215 37.1529 37.3792 37.1893 36.3504 37.5098C36.0739 37.5955 35.7779 37.6717 35.5147 37.7289C35.719 37.6821 35.9516 37.6206 36.2013 37.5479C36.5905 37.4335 36.9707 37.3236 37.046 37.3036C37.3486 37.224 37.6341 37.1209 37.8891 37.0048C37.8697 37.0308 37.8645 37.0611 37.8787 37.0862C37.904 37.1347 37.8869 37.1737 37.8414 37.1737C37.7959 37.1737 37.781 37.217 37.8093 37.2699C37.8257 37.3019 37.8414 37.3184 37.857 37.3192ZM24.1589 23.0572C24.0724 23.0563 23.98 23.0555 23.8823 23.0555C23.2158 23.0555 22.486 23.0303 22.2609 23C22.0261 22.9688 21.877 22.9784 21.912 23.0217C21.9254 23.0381 21.9687 23.0537 22.0365 23.0684C21.8143 23.0355 21.6652 23 21.6369 22.9645C21.5721 22.8831 21.5952 22.8736 21.739 22.9229C21.8419 22.9576 22.6381 23.007 23.5096 23.0321C23.7407 23.0381 23.9606 23.0477 24.1589 23.0572ZM26.771 23.0563C26.7457 23.104 26.6093 23.1429 26.4684 23.1429C26.3275 23.1429 26.2119 23.104 26.2119 23.0563C26.2119 23.0087 26.3483 22.9697 26.5146 22.9697C26.6972 22.9697 26.7986 23.0044 26.771 23.0563ZM15.4584 32.0854C15.3868 32.0663 15.3279 32.0135 15.3279 31.9685C15.3279 31.8351 15.5538 31.7719 15.6462 31.8793C15.7536 32.004 15.6358 32.133 15.4584 32.0854ZM29.9147 31.7528C30.1391 31.6766 30.3068 31.596 30.2875 31.5735C30.2457 31.525 29.7753 31.629 29.5144 31.7216C29.6031 31.6853 29.7194 31.6463 29.8461 31.6099C30.1227 31.5302 30.4328 31.4393 30.5357 31.4064C30.6639 31.3657 30.699 31.3752 30.6475 31.4375C30.6065 31.4869 30.3344 31.6099 30.0429 31.7095C29.9855 31.7294 29.9319 31.7467 29.8827 31.7632C29.8931 31.7597 29.9043 31.7563 29.9147 31.7528ZM25.8727 43.9033C25.3554 43.9163 24.8865 43.9215 24.4444 43.9172C24.0284 43.9094 23.6184 43.892 23.2173 43.8669C24.4094 43.9146 26.1001 43.8998 27.3913 43.834C26.906 43.8652 26.3938 43.8894 25.8727 43.9033ZM26.6078 24.0835C26.4825 24.1069 26.3655 24.1251 26.2574 24.1398C26.2641 24.1389 26.2701 24.1372 26.276 24.1363C26.4967 24.1078 26.7084 24.0636 26.815 24.009C26.9589 23.9363 26.9127 23.9267 26.5847 23.9631C26.3864 23.9848 26.1098 24.003 25.9271 24.0073C25.998 23.9978 26.0755 23.9891 26.156 23.9822C26.4945 23.9536 26.8888 23.9042 27.0319 23.8713C27.2041 23.8332 27.2675 23.8419 27.2183 23.899C27.1773 23.9458 26.9022 24.0289 26.6078 24.0835ZM29.9065 28.9917C30.037 28.8774 30.0168 28.841 29.8461 28.8826C29.9035 28.8635 29.9676 28.8419 30.0325 28.8193C30.491 28.6574 30.4954 28.7994 30.0377 28.9813C29.9326 29.0229 29.8506 29.054 29.7865 29.0757C29.8253 29.0549 29.8663 29.0272 29.9065 28.9917ZM28.9359 22.2708C28.8763 22.3825 28.672 22.3946 28.672 22.2864C28.672 22.198 28.8994 22.0785 28.9508 22.1391C28.9694 22.1608 28.9627 22.2205 28.9359 22.2708ZM23.6259 38.6625C23.5767 38.6651 23.5401 38.6842 23.5103 38.7188C23.4477 38.7916 23.4991 38.815 23.722 38.8115C23.7079 38.8115 23.6929 38.8115 23.6773 38.8115C23.4514 38.8141 23.2173 38.7786 23.1555 38.7327C23.0571 38.6591 23.3567 38.6357 23.6259 38.6625ZM23.1256 27.3063C23.0272 27.3158 23.0175 27.3392 23.0809 27.3868C23.1346 27.4275 23.2099 27.4526 23.2822 27.4639C23.1003 27.4717 22.864 27.4457 22.7454 27.3868C22.6403 27.334 22.7328 27.3106 23.0623 27.3063C23.0839 27.3063 23.1055 27.3063 23.1256 27.3063ZM27.2929 23.4028C27.3197 23.3525 27.2437 23.3161 27.111 23.3161C27.0088 23.3161 26.9224 23.3421 26.8933 23.3768C26.9142 23.3413 26.9641 23.3161 27.023 23.3161C27.0998 23.3161 27.2757 23.2919 27.4136 23.2616C27.5925 23.2226 27.644 23.2339 27.5911 23.3006C27.5419 23.3621 27.3942 23.4157 27.2466 23.4452C27.2683 23.4331 27.2847 23.4183 27.2929 23.4028ZM19.8753 37.1737C19.9678 37.243 19.9611 37.2569 19.8381 37.2525C19.7561 37.2499 19.6219 37.2144 19.5399 37.1737C19.4035 37.1053 19.4064 37.0992 19.5772 37.0949C19.68 37.0923 19.8135 37.1278 19.8753 37.1737ZM28.6444 26.3025C28.707 26.493 28.6385 26.5519 28.5296 26.4003C28.4692 26.3154 28.4655 26.2583 28.5199 26.2202C28.5632 26.189 28.6191 26.2262 28.6444 26.3025ZM29.0917 26.7355C29.1543 26.926 29.0857 26.9849 28.9769 26.8334C28.9165 26.7485 28.9128 26.6913 28.9672 26.6532C29.0104 26.622 29.0664 26.6593 29.0917 26.7355ZM15.9593 29.5477C15.8885 29.4143 15.9854 29.3286 16.0809 29.4395C16.1345 29.5018 16.136 29.5503 16.0853 29.5867C16.0436 29.617 15.9869 29.5997 15.9593 29.5477ZM25.6901 17.5133C25.6901 17.5609 25.6379 17.5999 25.5738 17.5999C25.5097 17.5999 25.4784 17.5609 25.5037 17.5133C25.5291 17.4657 25.5812 17.4267 25.62 17.4267C25.6588 17.4267 25.6901 17.4657 25.6901 17.5133ZM24.1947 41.402C24.2282 41.3994 24.264 41.3959 24.302 41.3916C24.5122 41.3656 24.9014 41.3743 25.1682 41.4124C25.1772 41.4133 25.1861 41.415 25.1951 41.4159C24.8522 41.4046 24.5584 41.3994 24.4086 41.4037C24.3341 41.4063 24.261 41.4055 24.1947 41.402ZM21.7286 45.6156C21.4602 45.5974 21.2224 45.5757 21.0316 45.5515C20.9854 45.5446 20.9377 45.5376 20.8899 45.5316C20.6872 45.5013 20.4673 45.4657 20.2451 45.4268C20.6872 45.4909 21.244 45.5627 21.7286 45.6156ZM24.8879 45.4103C25.2264 45.3895 25.696 45.367 26.036 45.3549C26.1754 45.3506 26.3148 45.3436 26.4557 45.3341C25.9413 45.3774 25.4187 45.4025 24.8879 45.4103ZM18.0862 35.0085C18.0862 35.0561 18.0504 35.0951 18.0072 35.0951C17.9639 35.0951 17.949 35.0561 17.9744 35.0085C17.9997 34.9608 18.0355 34.9219 18.0534 34.9219C18.0713 34.9219 18.0862 34.9608 18.0862 35.0085ZM18.0117 34.7486C18.0117 34.7963 17.9759 34.8353 17.9326 34.8353C17.8894 34.8353 17.8745 34.7963 17.8998 34.7486C17.9252 34.701 17.961 34.662 17.9789 34.662C17.9967 34.662 18.0117 34.701 18.0117 34.7486ZM38.2149 37.1954C38.1418 37.2127 38.0337 37.2508 37.8809 37.3106C37.8913 37.301 37.9025 37.2854 37.9144 37.2629C37.945 37.2058 38.0583 37.1729 38.1679 37.1884L38.2149 37.1954ZM36.4473 37.8562C35.8092 38.0545 35.0742 38.2182 34.1103 38.3837C34.9564 38.2382 35.7958 38.0441 36.4473 37.8562ZM38.156 36.8715C38.528 36.6679 38.8053 36.4358 38.9283 36.2098C38.7844 36.4739 38.5116 36.7069 38.156 36.8715ZM20.559 41.2574C20.998 41.3388 21.4312 41.4141 21.8173 41.4774L21.8136 41.4765C21.7674 41.473 21.7256 41.4696 21.6876 41.4661C21.3484 41.4098 20.9831 41.3414 20.559 41.2574ZM19.8463 41.1352C19.4378 41.0521 18.992 40.9568 18.4962 40.8486C18.9688 40.9516 19.5429 41.0668 20.1266 41.1768C20.0289 41.1612 19.935 41.1474 19.8463 41.1352ZM25.0937 23.1533C25.0937 23.2365 24.3542 23.2391 23.558 23.2001C23.5908 23.2018 23.6236 23.2027 23.6557 23.2036C23.8115 23.2113 23.9993 23.2165 24.2178 23.2191C24.7344 23.2252 25.0639 23.1992 25.0915 23.1499C25.093 23.1507 25.0937 23.1525 25.0937 23.1533ZM28.4454 41.7086C28.9821 41.693 29.4734 41.6714 29.8774 41.6419C29.829 41.6471 29.7805 41.6523 29.7321 41.6575C29.3556 41.6835 28.9456 41.6991 28.4454 41.7086ZM26.361 45.5905C26.2656 45.6017 26.1292 45.6121 25.9629 45.6225C26.1545 45.6061 26.3275 45.587 26.4728 45.5662C26.7479 45.5272 27.1751 45.4779 27.4449 45.4536C27.1743 45.4787 26.73 45.5342 26.4356 45.5801C26.4117 45.5835 26.3871 45.587 26.361 45.5905ZM11.5238 40.5125C11.5066 40.5506 11.3709 40.4909 11.2002 40.3869C11.2114 40.3921 11.2226 40.3965 11.2338 40.4017C11.3322 40.4502 11.4291 40.4874 11.5223 40.5125H11.5238ZM17.9729 29.2966C17.9736 29.2948 17.9736 29.294 17.9744 29.2922C18.0228 29.1147 18.1607 29.0506 18.1607 29.2056C18.1607 29.2177 18.1637 29.229 18.1697 29.2394C18.1548 29.2229 18.1421 29.2039 18.1354 29.184C18.1071 29.1026 18.078 29.1077 18.0184 29.2056C18.0005 29.2359 17.9848 29.2662 17.9729 29.2966ZM13.8571 41.7519C13.5843 41.654 13.3159 41.5544 13.0565 41.454C13.0617 41.4566 13.0669 41.4583 13.0721 41.46C13.4091 41.5796 13.7483 41.706 13.8571 41.7519ZM13.6059 42.8137C13.5134 42.7514 13.4262 42.6882 13.345 42.6241C13.2637 42.56 13.172 42.4855 13.0751 42.405C13.251 42.547 13.421 42.6752 13.588 42.7921C13.5932 42.7999 13.5992 42.8068 13.6059 42.8137ZM12.1321 41.57C11.8667 41.3223 11.6751 41.1283 11.6751 41.0963C11.6751 41.0919 11.6766 41.0867 11.6796 41.0807C11.6937 41.1205 11.7437 41.1838 11.8063 41.2409C11.8823 41.3275 11.9919 41.4367 12.1321 41.57ZM37.8168 38.1256C38.0292 37.8051 38.1962 37.5228 38.3245 37.2699C38.3364 37.2465 38.3424 37.2274 38.3416 37.2136L38.3662 37.217L38.0919 37.6934C38.0322 37.7964 37.9346 37.9497 37.8168 38.1256ZM25.9413 24.1736C25.6893 24.19 25.541 24.1684 25.541 24.1086C25.541 24.1381 25.6029 24.1563 25.6998 24.1632C25.7684 24.1719 25.8533 24.1753 25.9413 24.1736ZM23.842 38.7102C23.8048 38.6963 23.7712 38.6851 23.7407 38.6773C23.8204 38.6911 23.8912 38.7093 23.9382 38.7327C23.9606 38.744 23.9755 38.7535 23.9822 38.7621L23.842 38.7102ZM29.6933 28.9293C29.6225 28.9596 29.5696 29.0047 29.5666 29.0402C29.5666 29.0376 29.5666 29.035 29.5666 29.0324C29.5666 28.9848 29.5919 28.9458 29.6225 28.9449C29.6322 28.9449 29.6575 28.9389 29.6933 28.9293ZM14.1829 41.5588C14.2112 41.5709 14.2328 41.5813 14.247 41.5882C14.3312 41.6315 14.7845 41.7805 15.3108 41.9459C15.3093 41.9451 15.3078 41.9451 15.3071 41.9442C15.4398 41.9858 15.5777 42.0291 15.7156 42.0715C15.0387 41.8636 14.3581 41.6454 14.247 41.5917C14.1941 41.5657 14.0837 41.5207 13.9413 41.4644C14.0412 41.5025 14.1255 41.5354 14.1829 41.5588ZM25.1682 17.9039C25.1399 17.8866 25.1138 17.8892 25.0862 17.9178C25.0803 17.923 25.0743 17.929 25.0684 17.9351C25.1213 17.8545 25.1675 17.8225 25.1682 17.9039ZM35.9919 40.5004C36.0321 40.438 36.0522 40.3904 36.0522 40.3601C36.0522 40.2674 36.0247 40.2181 35.9784 40.2233C36.0105 40.2163 36.0291 40.2189 36.0396 40.231C36.0537 40.2475 36.053 40.2813 36.0522 40.3315C36.0522 40.3402 36.0522 40.3497 36.0522 40.3601C36.0522 40.3627 36.0522 40.3662 36.0522 40.3688C36.0522 40.3956 36.0314 40.4406 35.9919 40.5004ZM15.8535 43.8713C15.7223 43.8106 15.4972 43.7223 15.3279 43.6643C15.2683 43.6443 15.2087 43.6227 15.149 43.601C15.2079 43.6218 15.2675 43.6426 15.3279 43.6634C15.5128 43.7249 15.7305 43.8098 15.8125 43.8505L15.8535 43.8713ZM40.3343 30.7144C40.2866 30.82 40.2374 30.9257 40.1889 31.0296C40.1076 31.1976 40.0249 31.3631 39.9384 31.5285C40.0704 31.2704 40.2098 30.9846 40.3343 30.7144ZM21.3246 45.2076C21.4289 45.2215 21.5333 45.2354 21.6369 45.2484C21.496 45.2328 21.3536 45.2163 21.2105 45.199C21.247 45.2016 21.285 45.205 21.3246 45.2076ZM24.9565 18.1663C24.9409 18.2166 24.9275 18.2737 24.9148 18.3361C24.9066 18.3794 24.8909 18.4565 24.8701 18.5569C24.8917 18.4487 24.9081 18.3647 24.9163 18.3162C24.9237 18.2685 24.9386 18.2166 24.9565 18.1663ZM17.1544 42.4812C17.2774 42.5002 17.4279 42.5401 17.4898 42.5686C17.5502 42.5972 17.6285 42.6267 17.7202 42.6561C17.6218 42.6258 17.5413 42.5964 17.4898 42.5712C17.4279 42.5409 17.2774 42.5002 17.1544 42.4812ZM7.18134 13.6141C7.18059 13.6271 7.18059 13.6384 7.18134 13.6488C7.1791 13.6436 7.17686 13.6392 7.17463 13.6332C7.16866 13.6219 7.17239 13.5942 7.18581 13.55C7.18134 13.5743 7.17985 13.5959 7.18134 13.6141ZM8.18102 13.4859C7.76579 13.5838 7.52873 13.641 7.39082 13.6687C7.56153 13.6306 7.8545 13.563 8.18102 13.4859ZM16.6608 42.657C16.3731 42.5738 16.0824 42.4872 15.7931 42.3972C16.0809 42.4855 16.3761 42.573 16.6608 42.657ZM30.2875 43.4867C30.2591 43.4936 30.23 43.4997 30.1995 43.5058C30.1398 43.5162 30.0698 43.5274 29.9915 43.5395H29.9893C30.1033 43.5205 30.2017 43.5032 30.2875 43.4867ZM7.52724 12.7922C7.59433 12.6553 7.67186 12.5029 7.75908 12.3323C7.69348 12.4605 7.61744 12.612 7.52724 12.7922ZM13.9123 43.006C13.954 43.032 13.995 43.0571 14.0368 43.0814C13.9935 43.0571 13.951 43.032 13.9093 43.0069C13.91 43.0069 13.9115 43.0069 13.9123 43.006ZM26.8828 23.408C26.8851 23.4244 26.8978 23.44 26.9171 23.453C26.8955 23.4443 26.8828 23.4313 26.8828 23.414C26.8828 23.4114 26.8828 23.4097 26.8828 23.408ZM35.227 37.2924C35.2576 37.2681 35.2881 37.2439 35.3194 37.2196C35.7019 36.9208 36.0783 36.5943 36.1566 36.493C36.0783 36.5943 35.7048 36.9191 35.3254 37.2144C35.2918 37.2404 35.259 37.2664 35.227 37.2924ZM29.5688 29.0627C29.574 29.087 29.5889 29.1025 29.6106 29.1103C29.5845 29.1051 29.5733 29.0896 29.5688 29.0627ZM29.3429 31.8204C29.3444 31.8567 29.3593 31.8784 29.4003 31.8836C29.3578 31.8793 29.3429 31.8576 29.3429 31.8221C29.3429 31.8212 29.3429 31.8212 29.3429 31.8204Z" fill="#D9F3EB"/>
<path d="M29.6562 26.8481C29.4493 26.4622 29.391 26.4115 29.0234 26.167C28.8878 26.1102 28.9927 25.783 28.9548 25.7209C28.7768 25.4284 28.7141 25.3744 28.6827 25.0291C28.6424 25.0368 28.5935 25.0504 28.5564 25.0377C28.5362 25.0305 28.5306 25.0335 28.5229 25.0144C28.452 24.8364 28.5374 24.6514 28.5775 24.4871C28.6165 24.3262 28.588 23.9953 28.6426 23.8531C28.8664 23.271 29.3034 22.7999 29.5087 22.1889C29.5789 21.9802 29.6225 21.4344 29.5213 21.2461C29.4527 21.1184 29.3526 20.795 29.2618 20.7191C28.93 20.4418 28.6762 20.373 28.255 20.3718C27.9202 20.3708 27.391 20.1721 27.0556 20.0978C26.9706 20.079 26.8915 20.0128 26.7932 20.0142C26.6399 20.0163 26.5149 20.0763 26.3691 20.1074C26.2902 20.1242 26.3199 20.134 26.2705 20.1079C26.177 20.0585 26.0979 19.7135 26.0797 19.6907C25.9013 19.4669 25.6603 19.1385 25.6527 18.8427C25.6438 18.4808 26.0267 18.201 26.2809 17.9972C26.3329 17.9556 26.3546 17.7326 26.4233 17.6829C26.4559 17.6591 26.4508 17.6601 26.4615 17.6188L26.4149 17.6062C26.4041 17.5584 26.4064 17.5829 26.4307 17.5262C26.5257 17.495 26.6768 17.6084 26.7588 17.6582L26.7701 17.6552C26.7581 17.6494 27.2047 17.7275 27.2066 17.7275C27.449 17.6953 27.8529 17.6111 28.0829 17.5269C28.5075 17.3715 28.599 17.6281 28.9635 17.4926C29.0985 17.4424 29.2701 17.0152 29.4175 16.9748L29.4348 16.9957C29.393 17.0599 29.3901 17.0477 29.3818 17.1172C29.523 17.2751 30.1231 17.3511 30.2912 17.5489C30.3044 17.5644 30.7607 17.4988 30.776 17.5596C30.8723 17.9456 31.0369 17.9061 31.3262 18.0991C31.4955 18.2424 31.6005 18.5607 31.845 18.7052C32.1185 18.8671 32.1741 18.78 32.4447 18.7308C32.7495 18.8995 32.6095 18.7739 32.8737 18.7202C33.1603 18.7651 33.1536 19.0559 33.1401 19.2895C33.1348 19.3836 33.046 19.4155 32.9733 19.4675C32.9882 19.531 33.2348 20.1474 33.2593 20.1646C33.3707 20.1035 33.4308 20.132 33.5535 20.1118C33.5472 20.02 33.4895 20.057 33.4651 19.974C33.8002 20.0911 33.6461 20.6424 33.7397 20.8999C33.7975 21.0592 34.2977 20.9518 34.4648 21.0128L34.4637 21.0393C34.3876 21.0694 34.3644 21.0719 34.2863 21.0854L34.2661 21.1199C34.3059 21.1816 34.4461 21.2602 34.5401 21.3584L34.5338 21.3243C34.5197 21.2471 34.5014 21.2011 34.5283 21.1297C34.6182 21.2573 34.6035 22.0291 34.6547 22.2111C34.683 22.312 34.8133 22.3841 34.8195 22.4745C34.7536 22.5948 34.6492 22.6898 34.5227 22.7446C34.514 22.747 34.5054 22.7495 34.4967 22.7519C34.5201 22.9296 34.5335 22.9627 34.4197 23.1094C34.3124 23.2475 34.2455 23.3091 34.0778 23.3532C34.0254 23.314 34.0068 23.3114 33.9868 23.2526L33.9929 23.2266C33.9501 23.2625 33.9476 23.2658 33.8951 23.2881C33.8144 23.2642 33.8002 23.2508 33.7317 23.2056L33.7013 23.2214C33.6971 23.3286 33.7024 23.3726 33.7146 23.4802C33.7748 23.505 33.7505 23.4973 33.8225 23.4914C34.0902 23.6504 34.1991 23.7268 34.3729 23.9828C34.4395 23.956 34.4509 23.9355 34.498 23.9581C34.5791 23.9968 34.7032 24.036 34.7482 24.1189L34.685 24.109L34.668 24.1369C34.6944 24.2165 34.7233 24.2668 34.7492 24.3412C34.8141 24.5278 34.7973 24.8885 34.9957 24.9771C35.1871 25.0628 35.6056 24.9966 35.7629 25.0915C35.7352 25.2029 35.7095 25.0677 35.7054 25.1967L35.7391 25.2227C35.8745 25.1716 35.7564 25.1227 35.8702 25.1499C35.8434 25.2445 35.8155 25.6299 35.8724 25.7122C35.9945 25.6537 36.0677 25.5466 36.1706 25.5205L36.1847 25.5445L36.0719 25.6362C36.0898 25.7734 36.6479 26.1016 36.8191 26.0155C37.07 25.8893 37.1073 25.8205 37.4202 25.865C37.4671 25.8734 37.56 25.7545 37.7007 25.7826L37.7246 25.817C37.6062 25.8351 37.61 25.814 37.5474 25.8818C37.5378 25.9989 37.6538 26.2065 37.7419 26.2772C37.8178 26.2606 37.8413 26.2403 37.9059 26.1994C38.0103 26.2435 38.219 26.5668 38.2829 26.6666C38.3072 26.7044 38.3106 27.0242 38.2985 27.0865L38.2615 27.0867C38.2156 27.035 38.1995 27.0279 38.1897 26.9604C38.2479 26.8689 38.3216 26.7223 38.1965 26.6456L38.1315 26.6967L38.089 26.6638C38.086 26.6069 38.0917 26.5467 38.0572 26.5012L38.0193 26.5064C38.081 26.5859 38.0515 26.6099 38.0114 26.6997C38.0671 26.7202 38.0387 26.7115 38.0966 26.7257C38.0792 26.8106 37.9527 26.8105 38.0536 26.9107C38.1556 27.0121 38.0606 27.5652 38.1254 27.6074C38.2658 27.5607 38.5103 27.417 38.6227 27.4539L38.6474 27.4976C38.5473 27.5579 38.492 27.4773 38.3382 27.5753C37.9986 27.7915 37.4949 27.9063 37.3473 28.3309C37.2896 28.5425 37.3892 28.7578 37.1211 28.9534C36.9791 29.0655 36.7892 29.0734 36.7376 29.2641C36.7091 29.3697 36.7504 29.5662 36.7307 29.6337C36.6673 29.8526 36.5822 29.9152 36.685 30.15C36.7031 30.1918 36.7382 30.3121 36.6969 30.3517C36.6388 30.2704 36.6342 30.2188 36.6091 30.1195C36.1095 30.5098 36.3398 30.6853 35.8435 31.0569L35.8665 31.096L35.8315 31.1295L35.7963 31.1288C35.7005 31.1274 35.6642 31.1174 35.5847 31.1592C35.4444 31.2987 35.4832 31.5332 35.5099 31.7081C35.2832 32.1042 35.0503 32.4866 34.8034 32.8701C34.7191 33.0012 34.7144 33.2561 34.6224 33.3556C34.4979 33.1413 34.7923 32.8263 34.8337 32.6543L34.7998 32.6778C34.7579 32.7063 34.7493 32.7102 34.6999 32.7279C34.6084 32.8559 34.6526 32.9773 34.5827 33.0008C34.5649 33.0283 34.5731 33.0119 34.5611 33.0515C34.3178 33.1584 34.0295 33.4743 33.9886 33.7373C33.917 34.1974 33.8345 34.5723 33.5927 34.9786C33.5513 35.0485 33.7369 35.2722 33.6605 35.3341C33.6406 35.2902 33.6197 35.2466 33.5982 35.2035C33.5445 35.2514 33.5634 35.2318 33.5315 35.3022C33.2446 35.3844 32.9775 35.4654 32.6593 35.5197C32.5215 35.5433 32.0274 35.9201 32.0036 35.4803C31.9939 35.3041 32.4397 35.0369 32.4028 34.7767C32.4016 34.7401 32.2461 34.5765 32.2077 34.554C32.066 34.7128 32.0644 34.9716 32.0522 35.138C32.042 35.2743 31.5964 35.8273 31.6944 36.0473C31.8496 36.1289 32.2243 35.8391 32.6101 35.9099C32.5073 35.9599 32.3539 35.9528 32.2387 35.9821C32.0545 36.029 31.8795 36.168 31.6865 36.1256C31.62 36.0294 31.6811 35.8649 31.6827 35.7231C31.6862 35.4429 31.9961 35.3194 31.9737 34.9919C31.9683 34.9144 32.1649 34.5577 32.1804 34.4539C32.2719 34.0794 32.3399 33.681 32.3968 33.3018C32.3539 33.1658 32.5351 32.5898 32.5151 32.413C32.4548 31.8831 32.3241 31.3658 32.2881 30.8293C32.2676 30.5232 32.3456 30.2731 32.2874 29.9746C32.2691 29.8799 32.208 29.8663 32.1299 29.8155C32.1806 29.6989 32.2484 29.5672 32.116 29.4878L32.0952 29.5043L32.0885 29.5971C32.0236 29.6041 32.0607 29.6029 31.9986 29.5668C31.7651 29.4312 31.9236 29.1727 31.8554 28.9268C31.7713 28.623 31.451 28.4862 31.2021 28.3347C30.9761 27.987 31.3567 27.8422 30.914 27.5339C30.5877 27.4637 30.5705 27.3719 30.4527 27.0811C30.3155 26.743 29.956 26.7695 29.6562 26.8481Z" fill="#ACE6D1"/>
<path d="M31.3125 27.8086C31.4633 27.8133 31.5662 27.7983 31.6844 27.8939C31.7531 28.0352 31.6931 28.1112 31.6367 28.2497L31.6386 28.2368C31.5848 28.4077 31.5662 28.5375 31.7828 28.5347C31.8107 28.5806 31.8265 28.608 31.8579 28.6514C31.9726 28.6221 32.2579 28.5152 32.2817 28.7011C32.323 29.021 32.3074 29.3173 32.2413 29.6311C32.332 29.6918 32.4334 29.7281 32.4785 29.7998C32.3898 29.8533 32.3674 29.7642 32.3409 29.8303C32.3707 29.8446 32.3999 29.8594 32.4292 29.8746C32.5755 30.4371 32.45 30.5205 32.4979 31.0425C32.5484 31.5902 32.5444 33.3134 32.1989 33.6961C32.1701 33.5564 32.4091 33.0016 32.4072 32.8237C32.4013 32.2905 32.3242 31.7627 32.3431 31.2253C32.3539 30.9188 32.457 30.6778 32.4297 30.375C32.4212 30.2789 32.3617 30.2592 32.2893 30.2009C32.3516 30.09 32.4325 29.9658 32.3088 29.8734L32.2864 29.8877L32.2704 29.9794C32.205 29.9798 32.2421 29.9824 32.184 29.9402C31.9655 29.7818 32.1495 29.5406 32.1068 29.2891C32.0542 28.9784 31.7495 28.8101 31.5173 28.6343C31.3281 28.2656 31.7215 28.1599 31.3125 27.8086Z" fill="#D3EFE6"/>
<path d="M35.5449 22.0295L35.542 21.995C35.5359 21.9167 35.5224 21.8692 35.5564 21.8008C35.6329 21.9368 35.5394 22.7032 35.5718 22.8894C35.5897 22.9926 35.7119 23.0775 35.7089 23.168C35.631 23.281 35.5175 23.3651 35.386 23.4068C35.3771 23.4084 35.3683 23.41 35.3594 23.4115C35.3787 23.3404 35.5503 23.2353 35.622 23.1835C35.6209 23.1087 35.4901 22.9036 35.4436 22.8212C35.4389 22.7377 35.5224 22.0906 35.5449 22.0295Z" fill="#D3EFE6"/>
<path d="M35.1519 30.9766C35.3701 31.0855 35.2916 31.1915 35.385 31.2705C35.453 31.2679 35.5124 31.2646 35.5802 31.2585L35.6054 31.2813C35.5847 31.3045 35.5384 31.3213 35.5084 31.3359C35.4414 31.3248 35.4466 31.3223 35.3803 31.3248C35.3897 31.383 35.3897 31.3921 35.3836 31.4488L35.3782 31.4957L35.4025 31.5168C35.5698 31.4709 35.5611 31.2609 35.8749 31.2899L35.8631 31.3084C35.76 31.348 35.7203 31.3619 35.6337 31.428C35.4983 31.6209 35.4572 31.5515 35.2861 31.6656C35.2481 31.6909 35.3005 31.7725 35.2413 31.8531L35.1809 31.8374C35.0959 31.7193 35.1153 31.7746 35.1094 31.6284L35.1351 31.5887L35.1292 31.5794L35.2012 31.7702C35.2937 31.5995 35.0636 31.1409 35.1519 30.9766Z" fill="#9BE2CB"/>
<path d="M34.9832 31.0977C35.0044 31.1818 35.0306 31.1553 35.0577 31.2866C35.0365 31.3538 34.9872 31.3775 34.9282 31.4211L34.8793 31.4089C34.7842 31.2985 34.9008 31.1764 34.9832 31.0977Z" fill="#9BE2CB"/>
<path d="M35.2109 25.418C35.3461 25.4449 35.423 25.4848 35.4103 25.6317C35.3005 25.5907 35.2456 25.5795 35.1875 25.4869L35.2109 25.418Z" fill="#9BE2CB"/>
<path d="M27.1516 15.6123C27.2129 15.5071 27.5541 15.1787 27.6436 15.0867C28.4384 14.2695 29.3491 13.5443 30.3133 12.9343C30.5689 12.7725 30.9602 12.5227 31.2441 12.4258C30.4726 12.9723 29.8878 13.2948 29.1398 13.9332C28.5467 14.4393 28.096 14.9326 27.5516 15.4246C27.3736 15.4765 26.8889 16.088 26.7426 16.2686L26.7188 16.2497C26.7773 16.0357 27.1084 15.8241 27.1516 15.6123Z" fill="#150C0B"/>
<path d="M26.6483 14.3008C26.7236 14.4696 26.6141 14.4728 26.6835 14.6059L26.7054 14.6116C26.7024 14.5191 26.6986 14.5015 26.7465 14.4224C26.78 14.4114 26.767 14.4082 26.7859 14.4163C26.6979 14.8491 26.6592 15.1259 26.6269 15.5682L26.6033 15.5889C26.5657 15.4435 26.5709 15.6092 26.5303 15.4666L26.5735 15.3929L26.549 15.3651L26.5204 15.3756L26.4952 15.479V15.4648L26.477 15.4537L26.4688 15.3172C26.4711 15.0119 26.5686 14.5942 26.6483 14.3008Z" fill="#150C0B"/>
<path d="M25.1839 18.1538C25.2353 18.102 25.2662 18.1037 25.3384 18.0898C25.252 18.2704 25.1794 18.4026 25.0781 18.576C25.1083 18.4355 25.1348 18.2885 25.1839 18.1538Z" fill="#E5C7B9"/>
<path d="M21.2787 17.2656C21.8395 17.6196 22.9558 18.4002 23.2812 18.9574C23.2822 19.1047 23.4233 19.0965 23.3737 19.2419L23.3201 19.2798L23.2922 19.2676C23.2679 19.1746 23.1249 19.0238 23.0584 18.9443C22.5233 18.3045 21.9108 17.802 21.2344 17.3203L21.2787 17.2656Z" fill="url(#paint0_linear_1937_9085)"/>
<path d="M21.2378 17.3211C21.1506 17.2674 20.9487 17.1542 20.9062 17.0781L20.9355 17.0813L20.9282 17.1108L20.96 17.09C21.0556 17.1286 21.1894 17.2124 21.2821 17.2664L21.2378 17.3211Z" fill="#352E2E"/>
<path d="M23.2882 6.25195C23.4979 6.29327 23.842 6.55113 24.0284 6.68457C25.1885 7.51461 26.2668 8.86559 26.4903 10.2949C26.632 11.2085 26.4015 12.1403 25.8497 12.8848C25.862 13.1745 25.8953 13.4558 25.8936 13.749C25.8854 15.2892 25.5339 16.6691 25.1768 18.1533C25.2282 18.1016 25.259 18.1027 25.3311 18.0889C25.3859 18.02 25.5116 17.7964 25.5675 17.7061C25.8452 17.2564 26.1228 16.8377 26.4444 16.417C26.4104 16.0956 26.4211 15.6321 26.4678 15.3164C26.4702 15.0112 26.5678 14.5932 26.6475 14.2998L26.6553 14.2695C27.0525 12.7895 28.2414 11.6614 29.543 10.9199C29.8942 10.7222 30.2574 10.5458 30.63 10.3916C30.9938 10.2394 33.9111 9.15453 34.1632 9.16895C34.343 9.32616 34.1312 10.3354 34.0977 10.5889C33.7517 13.2068 32.0743 15.6842 29.2979 16.1289C28.5025 16.2563 27.3914 16.3238 26.6134 16.5918C26.4423 16.6509 26.2397 17.0596 26.1241 17.207C25.2131 18.5107 24.636 19.8012 24.3868 21.3711C25.3104 21.346 28.788 21.4339 29.3712 21.9785C29.4189 22.0233 29.446 22.0832 29.4483 22.1484C29.4565 22.3976 29.0988 22.6873 28.9444 22.8701C28.0952 23.8771 27.6149 24.9337 28.6514 26.0107C29.1509 26.5296 29.7643 26.9507 30.3077 27.4238C31.5757 28.5275 32.2024 29.9895 32.1729 31.6592C32.1573 32.5417 31.9884 33.3774 31.7432 34.2227C31.6655 34.2173 31.6856 34.2254 31.6173 34.1973C31.6239 34.1251 31.6233 34.0944 31.6212 34.0234C31.6368 33.9015 31.7962 33.3227 31.837 33.1387L31.8565 33.0488C32.1328 31.2869 32.0227 29.5712 30.7813 28.1641C30.4262 27.7617 30.0086 27.4248 29.6046 27.0781C28.86 26.439 27.8926 25.8535 27.878 24.7578C27.8612 23.9037 28.4536 23.0945 29.0216 22.5049C27.3288 23.0884 22.9888 23.0211 21.1114 22.7959C20.6292 22.7346 20.151 22.6431 19.6807 22.5205C20.3238 23.1252 20.9186 23.9973 20.8262 24.9014C20.7213 25.9275 19.7513 26.5486 19.0167 27.1279C17.7518 28.1257 16.8359 29.2997 16.7413 30.9609C16.5032 33.8418 17.9527 36.5751 19.7266 38.7285C19.5891 38.6741 19.4655 38.6202 19.3526 38.5225C19.0331 38.2466 18.7927 37.8382 18.5606 37.4893C17.4762 35.8583 16.6548 33.9813 16.5382 32.0107C16.4127 29.8882 17.0858 28.4769 18.7061 27.127C19.191 26.7229 19.7339 26.3601 20.1534 25.8867C21.0296 24.8975 20.6159 23.9015 19.8643 22.9932C19.6856 22.7772 19.2693 22.4466 19.2628 22.1592C19.2611 22.0824 19.2922 22.0205 19.3487 21.9688C19.9566 21.4134 23.2138 21.3532 24.1261 21.3604C24.0303 20.8666 23.784 19.8492 23.4122 19.4951C22.865 19.3639 22.6443 19.3927 22.1065 19.3301C21.7203 19.2838 21.3406 19.1933 20.9757 19.0596C19.9646 18.6911 19.3316 17.883 18.8624 16.9414C18.6734 16.5617 18.2149 15.1704 18.3448 14.832C18.42 14.7869 18.5261 14.8144 18.6104 14.8311C20.7702 15.2577 23.1771 15.9581 23.5567 18.4834C23.6011 18.7785 23.6588 19.0711 23.5948 19.377C23.9738 20.0208 24.1036 20.3454 24.2442 21.0723C24.804 18.3409 25.9096 15.8334 25.6593 12.96C24.9315 12.3513 24.2441 12.1878 23.7384 11.3154C23.0213 10.0783 23.2032 8.80827 23.2374 7.4541C23.2452 7.14456 23.1761 6.53405 23.2452 6.26855L23.2882 6.25195ZM23.6436 21.5723C23.0369 21.611 19.7414 21.6381 19.4649 22.1475C19.4828 22.2085 19.4996 22.2255 19.5567 22.2559C20.6183 22.8201 24.787 22.8085 26.1446 22.7178C26.9612 22.6807 28.6617 22.5758 29.3331 22.167C29.1528 22.0315 28.9523 21.94 28.7286 21.8936C27.5684 21.6529 26.2973 21.5933 25.1124 21.585C24.8815 21.5833 24.5935 21.5606 24.3761 21.5752L24.3721 21.6133C24.3511 21.8374 24.387 22.4847 24.3048 22.5947C24.2184 22.5982 24.256 22.6099 24.1876 22.5596C24.095 22.3677 24.1407 21.8182 24.1475 21.5654C23.9854 21.5664 23.8037 21.5639 23.6436 21.5723ZM18.4805 14.9766C18.9233 17.3862 19.9747 19.0757 22.5733 19.1914C22.7605 19.1997 23.1126 19.2329 23.295 19.2725L23.3223 19.2842L23.3761 19.2471C23.4256 19.1017 23.2843 19.1092 23.2833 18.9619C23.3468 19.0145 23.3852 19.0702 23.4356 19.1348C23.3534 16.6464 21.6472 15.6547 19.4356 15.1934C19.1379 15.1313 18.7698 15.058 18.4805 14.9766ZM34.0421 9.36328C33.5922 9.51372 33.1432 9.69308 32.6973 9.84082C30.1207 10.6941 27.7148 11.6342 26.7784 14.418C26.6904 14.8507 26.6515 15.128 26.6192 15.5703L26.6016 16.25C26.7449 16.0787 26.9936 15.7519 27.1436 15.6152C27.1002 15.8268 26.7687 16.0381 26.71 16.252L26.7344 16.2715C26.8807 16.091 27.365 15.479 27.543 15.4268C27.2981 15.7237 26.9964 16.0765 26.7354 16.3545C27.2914 16.2108 27.7463 16.1766 28.3087 16.1055C29.6354 15.9377 30.7795 15.6495 31.8106 14.7383C33.3882 13.3443 33.8913 11.3597 34.0421 9.36328ZM23.38 6.45703C23.5301 8.32284 22.9009 10.5818 24.5147 11.9209C24.8894 12.2318 25.3135 12.4365 25.6407 12.7256C25.4996 11.5165 25.0426 10.3768 24.5137 9.28906C24.6305 9.43921 24.7137 9.56543 24.8175 9.72559C25.1995 10.3993 25.4676 11.1159 25.6583 11.8672C25.7244 12.1274 25.7546 12.4105 25.8018 12.6738C26.3191 11.7073 26.5261 11.0043 26.1973 9.82227C25.8113 8.43503 24.6013 7.25678 23.4034 6.4668C23.3956 6.46355 23.3877 6.46028 23.38 6.45703Z" fill="#341005"/>
<path d="M5.34375 34.9102C5.60164 34.9345 5.98979 35.0372 6.24343 35.0986C6.61558 35.1888 6.98859 35.2753 7.36239 35.3585C8.50604 35.618 9.66082 35.8266 10.8233 35.9834C11.5662 36.0825 12.3113 36.1657 13.0578 36.2332C13.5279 36.2756 14.2467 36.3045 14.6824 36.3736C14.7943 36.3912 15.5106 36.9405 15.6963 37.054C16.4649 37.5232 17.2605 37.9474 18.079 38.3245C22.2303 40.2415 26.9449 40.5813 31.3314 39.2798C32.0321 39.0675 32.792 38.7872 33.4726 38.5179C33.8202 38.3803 34.3511 38.055 34.6893 37.9638C35.1547 37.8741 35.6167 37.8356 36.0906 37.7625C37.5131 37.5427 38.7115 37.1498 40.0559 36.6499C39.9412 36.8374 39.8447 36.9877 39.717 37.1665C39.4046 37.6022 38.3898 38.9951 37.9804 39.2215C37.7718 39.3368 37.5136 39.3844 37.2852 39.4538C36.5479 39.6776 35.8187 39.8752 35.0669 40.0472C30.3544 41.1255 24.686 41.0548 19.9229 40.3134C18.8818 40.1515 17.8451 39.9305 16.8166 39.7043C15.6883 39.4652 14.567 39.1943 13.4542 38.892C11.5044 38.3616 9.57363 37.7648 7.66517 37.1027C7.45733 37.032 6.56124 36.7523 6.47326 36.653C6.12862 36.263 5.60506 35.3688 5.34375 34.9102Z" fill="url(#paint1_linear_1937_9085)"/>
<path d="M6.92188 37.3008C7.0886 37.3291 7.43567 37.4616 7.60921 37.5171C8.13818 37.6863 8.66849 37.8884 9.19701 38.0571C10.7978 38.5748 12.4132 39.0471 14.041 39.4737C15.6626 39.8808 17.3005 40.2209 18.9505 40.493C19.9908 40.6643 20.9613 40.8307 22.018 40.9345C26.9451 41.4183 32.0545 41.2594 36.8209 39.8337C37.1237 39.743 37.4409 39.6459 37.7243 39.5152C37.4701 39.84 37.0876 40.1866 36.7775 40.4597C35.6875 41.4635 35.3968 41.5784 33.9596 41.9468C29.7684 43.0207 25.0666 43.2185 20.7853 42.6687C17.2821 42.2114 13.8389 41.3796 10.5158 40.1871C10.2764 40.1013 9.16924 39.7228 9.03579 39.618C8.31871 39.0548 7.47751 38.017 6.92188 37.3008Z" fill="#C04D24"/>
<path d="M9.57812 40.1797C13.1801 41.5182 17.4594 42.6378 21.2845 43.0416C25.5495 43.4968 29.8622 43.1893 34.0177 42.1332C34.2884 42.0547 34.8406 41.8681 35.0844 41.8189C34.8973 41.967 34.4463 42.2778 34.2313 42.4084C33.8589 42.7269 33.1219 43.0658 32.6641 43.2491C32.4399 43.3388 32.2136 43.531 32.0163 43.5962C31.7409 43.6871 31.4065 43.7736 31.1243 43.8467C29.3171 44.3155 27.4077 44.537 25.5446 44.6347C24.2306 44.7038 22.8585 44.6255 21.5515 44.5119C18.9872 44.2887 16.4629 43.8167 14.035 42.9556C13.5065 42.7684 12.8994 42.5398 12.3891 42.309C12.2537 42.2476 11.8828 41.9802 11.7327 41.8794C10.962 41.3619 10.2728 40.7916 9.57812 40.1797Z" fill="#C04D24"/>
<path d="M34.0156 42.1346C34.2863 42.0561 34.8385 41.8695 35.0823 41.8203C34.8952 41.9684 34.4442 42.2792 34.2292 42.4098L34.2165 42.3758C34.283 42.3144 34.3472 42.2802 34.4248 42.2328C34.4305 42.1592 34.4312 42.1644 34.4036 42.0957C34.2641 42.053 34.195 42.2014 34.0156 42.1346Z" fill="#943E20"/>
<path d="M20.1314 4.13987C20.6765 4.0971 22.0716 4.11137 22.5907 4.21225C22.3033 4.25594 21.96 4.28493 21.6554 4.30832C17.2523 4.64671 12.9053 6.95315 10.2422 10.4606C9.37138 11.6075 9.88774 11.3833 8.37449 11.5643C7.71441 11.642 6.95068 11.7292 6.29688 11.827C7.62129 9.93137 9.62606 8.10616 11.5856 6.88478C14.0786 5.3309 17.1913 4.31392 20.1314 4.13987Z" fill="#DE713F"/>
<path d="M3.85938 31.8164C5.37154 32.1216 6.85723 32.4326 8.38856 32.6484C9.25959 32.7633 10.134 32.8514 11.0106 32.9123C11.4281 33.3602 11.7744 33.8705 12.2588 34.3017C12.5415 34.5537 12.8342 34.8698 13.1244 35.126C13.2698 35.2545 13.92 35.7696 13.9951 35.8725C13.4226 35.8589 12.781 35.7616 12.2068 35.6939C10.4833 35.4895 8.77213 35.1933 7.08069 34.8066C6.3916 34.6556 5.65867 34.5049 4.98249 34.3165C4.55361 33.5222 4.18766 32.6562 3.85938 31.8164Z" fill="url(#paint2_linear_1937_9085)"/>
<path d="M2.85938 28.375C3.23948 28.4488 3.60215 28.5466 3.97395 28.6188C4.72585 28.7587 5.48083 28.882 6.2383 28.9884C7.00491 29.0985 7.85036 29.1602 8.63608 29.2574C8.71242 29.388 8.80337 29.5696 8.86605 29.707C9.32335 30.7084 10.0016 31.5229 10.6025 32.4252C10.4399 32.3966 10.2691 32.383 10.1042 32.3645C8.28288 32.1595 6.45388 31.8559 4.66207 31.4727C4.32375 31.4003 3.98827 31.3307 3.6497 31.2627C3.3567 30.4745 3.02341 29.1895 2.85938 28.375Z" fill="#EA9064"/>
<path d="M17.6291 22.4338C18.1059 22.2758 18.4312 22.7539 18.7933 22.9621C18.9957 23.0784 19.1557 23.081 19.3664 23.1588C19.4324 23.1832 19.4792 23.2853 19.5734 23.3258L19.5982 23.2647C19.6626 23.3362 19.6936 23.6623 19.7385 23.7428C19.837 23.9198 20.0722 24.0292 20.0814 24.265C20.0916 24.5235 20.0243 24.7637 19.97 25.0155C19.9321 25.1645 19.894 25.3912 19.8399 25.5297C19.803 25.6244 19.5263 25.9269 19.4471 25.9858C19.1827 26.1817 18.9302 26.241 18.7236 26.5131C18.4617 26.8581 18.7797 27.1581 18.3981 27.4115C18.1417 27.5987 17.6705 27.5645 17.4522 27.816C17.371 27.9095 17.4723 28.1732 17.4685 28.3042C17.4588 28.6417 17.3576 28.6818 17.1232 28.8693C17.114 28.8796 17.1048 28.8901 17.0957 28.9005L17.0679 28.8911C17.0604 28.8222 17.0688 28.8374 17.1186 28.7638C17.0731 28.7369 17.0773 28.7401 17.0264 28.7385C16.9643 28.521 16.6756 28.1732 16.5351 27.9794C16.502 27.9337 16.4706 27.944 16.4297 27.9456C16.3784 27.9955 16.3749 28.0033 16.3134 28.0377C16.1413 27.9787 16.0644 27.5992 16.0625 27.4361L16.089 27.4211C16.1124 27.5268 16.1454 27.7511 16.1943 27.8322L16.2202 27.8038C16.1992 27.7136 16.4419 27.017 16.2509 26.6769C16.2011 26.5884 16.3312 25.7336 16.3741 25.5735C16.4567 25.2646 16.1981 25.2365 16.3402 24.9714C16.4259 24.7591 16.2144 24.8008 16.1336 24.6487C16.2026 24.5666 16.162 24.5891 16.2481 24.5577C16.4724 24.6107 16.4672 24.9726 16.5626 25.0586C16.655 24.9238 16.5212 24.5399 16.7468 24.366C16.8626 24.2767 16.8921 23.9814 16.9063 23.83C16.8596 23.8464 16.82 23.8586 16.7724 23.8722L16.7595 23.8424C16.8144 23.6741 17.0417 23.6877 17.0173 23.4581C16.9729 23.3886 16.9168 23.3772 16.8385 23.3448C16.8377 23.3146 16.8372 23.2845 16.8368 23.2543C16.8318 22.7635 17.119 22.4255 17.6291 22.4338Z" fill="#ACE6D1"/>
<path d="M7.21943 25.5312C7.27299 25.5805 7.59174 26.6778 7.65678 26.8618C7.89787 27.5485 8.16409 28.2263 8.45494 28.8938C8.08267 28.8556 7.65647 28.8657 7.28265 28.8249C6.2788 28.7155 5.24099 28.6205 4.24371 28.4743C3.75965 28.4 3.30938 28.3292 2.83113 28.2263C2.74167 27.7276 2.65999 27.2635 2.59375 26.7605C3.15887 26.6708 3.70497 26.4713 4.2561 26.3363C5.24673 26.0933 6.23042 25.7649 7.21943 25.5312Z" fill="#DE713F"/>
<path d="M6.73494 19.4336C6.77735 19.4915 6.74712 19.9606 6.7424 20.0548C6.7032 20.8377 6.73216 21.6004 6.75653 22.3826C6.37579 22.4931 6.01287 22.6575 5.64635 22.7637C4.58974 23.0698 3.56826 23.4692 2.51564 23.7793L2.48269 23.7783L2.45855 23.742C2.4296 23.0593 2.52241 22.2646 2.59691 21.5892C2.62563 21.3288 2.66747 20.8957 2.72687 20.656C3.08239 20.4271 6.17081 19.567 6.73494 19.4336Z" fill="#EA9064"/>
<path d="M6.712 22.7352L6.75851 22.7344C6.75481 22.7306 7.1343 24.9987 7.17076 25.2066C6.94799 25.2162 6.78098 25.2694 6.56781 25.3208C5.34249 25.6147 4.10669 25.9283 2.87828 26.2034L2.56677 26.2742C2.47828 25.6784 2.44264 24.9266 2.4375 24.3273C2.87198 24.2052 3.30766 24.016 3.73194 23.8585C4.70919 23.4959 5.71439 23.0317 6.712 22.7352Z" fill="#C04D24"/>
<path d="M7.17317 16.4805C7.25058 16.4685 7.22122 16.4575 7.27186 16.4916C7.26863 16.6244 7.1033 17.33 7.06559 17.5212C6.9719 18.0154 6.89263 18.5123 6.82783 19.0111C6.60281 19.0644 6.35639 19.1432 6.12909 19.2029L4.09289 19.7239C3.70891 19.8237 3.33598 19.9385 2.94842 20.0302C2.86247 20.0326 2.89197 20.0487 2.84378 20.0048C2.84173 19.8913 2.94573 19.492 2.97808 19.3595C3.08187 18.9362 3.19038 18.514 3.30358 18.0931C3.3904 17.7796 3.49461 17.4578 3.56279 17.1423C4.15137 17.0558 4.77666 16.9258 5.3639 16.8202C5.95974 16.7131 6.58422 16.6102 7.17317 16.4805Z" fill="#DE713F"/>
<path d="M16.4536 44.043L16.4736 44.0463C16.7689 44.0943 17.1066 44.1895 17.405 44.2577C20.8643 45.0487 24.4632 45.0923 27.9764 44.6685C28.6027 44.5928 29.4914 44.492 30.0967 44.3315L30.1335 44.3995L30.0986 44.4306L30.1255 44.4494C29.7017 44.6997 28.3629 45.0257 27.8588 45.1443C24.7169 45.8716 21.4421 45.8099 18.3303 44.9643C17.845 44.8366 16.6878 44.4951 16.25 44.2886C16.4846 44.2647 16.6308 44.4388 16.8953 44.4442C16.8463 44.3491 16.7945 44.268 16.7788 44.1616C16.6977 44.1566 16.5486 44.1046 16.4651 44.0791L16.4536 44.043Z" fill="#C04D24"/>
<path d="M41.839 33.2852C41.8022 33.6191 40.7386 35.6373 40.4823 35.9978C40.3127 36.2369 39.9485 36.3428 39.6734 36.456C38.379 36.9892 37.0025 37.2255 35.6271 37.4505L35.625 37.4406C35.6446 37.3816 35.7987 37.2986 35.8603 37.262C36.9628 36.606 37.9042 35.7869 38.8661 34.9518C38.9557 34.874 39.3364 34.7188 39.4726 34.6548C39.7546 34.521 40.0337 34.3813 40.3098 34.2358C40.8864 33.9344 41.2982 33.6304 41.839 33.2852Z" fill="#DE713F"/>
<path d="M8.08183 13.8859L8.12797 13.875L8.1557 13.9003C8.15126 14.0971 7.99903 14.442 7.92124 14.6314C7.72301 15.114 7.58189 15.5652 7.45182 16.0706C6.33585 16.2265 4.9657 16.4967 3.88601 16.5767C3.8445 16.5766 3.85399 16.5746 3.8125 16.5589C3.83563 16.3783 4.5354 14.7799 4.65835 14.5959C4.81536 14.5475 5.09226 14.4949 5.26281 14.4564C5.71728 14.3512 6.17344 14.2533 6.63112 14.1627C7.15041 14.0568 7.54928 13.9333 8.08183 13.8859Z" fill="#EA9064"/>
<path d="M9.3408 11.6602L9.36142 11.6843C9.33119 11.7983 8.89841 12.5103 8.81332 12.6756C8.67661 12.941 8.50434 13.2933 8.3619 13.5564C7.89046 13.5866 7.44381 13.7161 6.9812 13.8015C6.30063 13.927 5.62266 14.0953 4.93584 14.1809L4.90625 14.1528C4.92803 13.9641 5.8928 12.3717 6.04822 12.2065C6.28662 12.127 6.86193 12.0655 7.13976 12.0138C7.87803 11.8763 8.59427 11.7446 9.3408 11.6602Z" fill="#DE713F"/>
<path d="M43.0496 28.5195C43.0619 29.5194 42.6281 31.168 42.31 32.1366C42.2258 32.394 42.1432 32.7174 41.973 32.9176C41.7932 33.1292 40.6237 33.8862 40.4047 33.9472C40.2557 34.043 39.89 34.2261 39.7203 34.2732L39.7123 34.2273L39.6094 34.1865C40.0337 33.6917 40.4497 33.1046 40.8665 32.6253C41.9509 31.1408 42.4648 30.2703 43.0496 28.5195Z" fill="#DE713F"/>
<path d="M40.8665 32.6289C40.7523 33.0866 39.7859 33.6386 40.2317 33.9883C40.2871 33.9855 40.2831 33.985 40.3282 33.952L40.4047 33.9508C40.2557 34.0466 39.89 34.2297 39.7203 34.2768L39.7123 34.2309L39.6094 34.1901C40.0337 33.6953 40.4497 33.1082 40.8665 32.6289Z" fill="#EA9064"/>
<path d="M28.1406 39.7109C28.4009 39.3437 28.8042 38.911 29.1044 38.5538C29.9863 37.5038 30.5305 36.4752 31.1514 35.2695C31.237 35.3056 31.2363 35.3021 31.3317 35.3068C31.2288 35.5534 31.1148 35.7952 30.9902 36.0317C30.4521 37.0477 29.8084 38.0166 29.0744 38.9035C28.7627 39.2804 28.6305 39.5607 28.1406 39.7109Z" fill="#341005"/>
<path d="M17.9844 31.3711C20.9323 32.1902 24.922 32.2594 27.9446 31.9198C28.4654 31.8612 29.1984 31.7578 29.706 31.6331L29.7492 31.6807C29.4273 31.7395 29.1189 31.8218 28.7904 31.8717C25.2442 32.4108 21.4952 32.3487 18.0263 31.4412L17.9844 31.3711Z" fill="#150C0B"/>
<path d="M29.4353 36.984C28.8878 37.1218 28.3333 37.2308 27.7742 37.3107C25.7365 37.5866 23.6704 37.5809 21.6344 37.2941C20.7985 37.1696 19.9696 36.9755 19.1429 36.7991C19.0713 36.7836 19.0282 36.7466 18.9553 36.7269C18.8535 36.6995 18.7244 36.7152 18.6406 36.6523C18.8594 36.676 19.2233 36.7845 19.4625 36.8312C20.0495 36.946 20.6411 37.077 21.2323 37.1694C23.963 37.588 26.7477 37.5066 29.4486 36.9291L29.4353 36.984Z" fill="#352E2E"/>
<path d="M30.9804 28.6953L30.9957 28.6979L30.9726 28.7305C28.3746 29.7238 24.334 29.7692 21.5939 29.3691L21.4531 29.3473C21.5111 29.3248 23.2124 29.4901 23.4019 29.4941C25.8826 29.5466 28.6137 29.5084 30.9804 28.6953Z" fill="#585253"/>
<path d="M21.7953 28.4736C23.7069 28.678 25.6356 28.6684 27.5453 28.4452C28.1322 28.3742 28.683 28.2866 29.2559 28.1366C29.3192 28.1199 30.3389 27.8218 30.2988 27.8164C30.2511 27.9357 29.4407 28.1598 29.2675 28.2034C26.8916 28.7994 24.2445 28.7968 21.8177 28.5465C21.8019 28.5364 21.7806 28.5165 21.7656 28.5036L21.7953 28.4736Z" fill="#352E2E"/>
<path d="M14.1094 43.3125L14.1375 43.32C14.4774 43.4067 14.8467 43.5806 15.1916 43.6955C15.5827 43.826 16.09 43.908 16.4601 44.0447L16.4716 44.0808C16.5552 44.1063 16.7042 44.1584 16.7853 44.1633C16.8011 44.2697 16.8528 44.3508 16.9019 44.4459C16.6373 44.4405 16.4912 44.2664 16.2565 44.2903C16.0649 44.2615 14.3564 43.4534 14.1094 43.3125Z" fill="#943E20"/>
<path d="M28.9544 26.9102L28.9768 26.9134C28.8622 27.0121 28.2894 27.1398 28.1167 27.1769C26.4742 27.5296 24.751 27.532 23.0823 27.3948C22.8553 27.3761 22.5076 27.3609 22.2933 27.3027L22.2344 27.2938C24.3262 27.4558 26.9329 27.4891 28.9544 26.9102Z" fill="#352E2E"/>
<path d="M30.5465 34.957L30.5762 35.0051C30.4474 35.0231 30.0186 35.1464 29.8617 35.1834C29.4468 35.2774 29.0288 35.358 28.6086 35.4248C27.3264 35.6327 25.7944 35.667 24.4941 35.6264C24.0174 35.6114 23.4051 35.5969 22.9375 35.5411C22.9949 35.5596 23.4394 35.5383 23.5443 35.5448C25.7909 35.6838 28.3832 35.5268 30.5465 34.957Z" fill="#585253"/>
<path d="M17.6152 29.3281C18.1886 29.5501 18.832 29.6729 19.4313 29.806C20.523 30.0484 21.6074 30.1337 22.7169 30.2377L22.7024 30.2666L22.464 30.2802C20.8688 30.2265 19.0756 29.918 17.5781 29.3757L17.6152 29.3281Z" fill="#150C0B"/>
<path d="M20.5625 23.0273C20.7272 23.0293 21.0047 23.0862 21.1818 23.1043C21.6564 23.1527 22.161 23.2208 22.6379 23.2309C23.6668 23.2483 24.6957 23.249 25.7246 23.2331C26.1414 23.2264 26.6197 23.1712 27.0254 23.1888C26.8616 23.2393 26.3717 23.2582 26.1843 23.2718C24.5185 23.3852 22.8454 23.3401 21.1882 23.1371C21.0671 23.1212 20.6443 23.08 20.5625 23.0273Z" fill="#959091"/>
<path d="M31.0449 33.3516L31.063 33.4052C29.7431 33.8325 28.5604 34.0495 27.1718 34.1655C26.7928 34.1972 26.3997 34.1988 26.0311 34.23L25.9688 34.2089L26.0034 34.1695C26.3123 34.1726 26.8318 34.1208 27.1433 34.0917C28.3541 33.9785 29.8951 33.7613 31.0449 33.3516Z" fill="#150C0B"/>
<path d="M23.4062 38.2436C24.0906 38.2724 24.7601 38.3144 25.4457 38.2794C26.6629 38.2173 27.8988 38.124 29.0884 37.8554C29.1457 37.8426 29.191 37.8487 29.2488 37.8526C29.2151 37.8894 28.0109 38.0978 27.852 38.1259C26.8116 38.3108 25.748 38.3626 24.6924 38.3451C24.3391 38.3415 23.8657 38.2869 23.5432 38.2944L23.4062 38.2436Z" fill="#585253"/>
<path d="M38.4587 21.7383L38.4835 21.7505C38.4592 21.9665 38.4502 22.086 38.4521 22.3024C38.9005 22.3032 39.317 22.303 39.7599 22.2139C39.7663 22.4925 39.7682 22.6621 39.7316 22.9384C39.8397 22.8106 40.0542 22.5484 40.2206 22.7722C40.4891 23.1337 40.0974 23.4205 40.0407 23.7206C40.0648 23.7956 40.0448 23.7611 40.1198 23.8166C40.1849 23.8216 40.1984 23.8192 40.2593 23.8401C40.2925 23.8994 40.2909 24.0159 40.2373 24.0602C40.2343 24.0105 40.2451 23.9364 40.2505 23.8844C40.21 23.8391 40.1042 23.8293 40.0337 23.8141C39.8482 23.6127 40.3473 23.3077 40.2692 22.9949C40.2444 22.8954 40.2227 22.7884 40.1245 22.7227C39.9239 22.7079 39.9265 22.8689 39.7604 22.9389L39.7205 22.907C39.6915 22.7737 39.7432 22.7095 39.7354 22.5778C39.7318 22.5206 39.4446 22.5149 39.3982 22.4375C39.3923 22.4278 39.3085 22.3492 39.3068 22.349C39.0435 22.318 38.6116 22.4811 38.3931 22.3118C38.3135 22.1715 38.391 21.8747 38.4587 21.7383Z" fill="#D3EFE6"/>
<path d="M23.3905 23.7413C24.3235 23.7516 25.2031 23.7376 26.1359 23.6541C26.7099 23.6028 27.3706 23.4542 27.9245 23.4297C27.8282 23.4418 27.7886 23.4361 27.6989 23.4718C27.4922 23.5538 27.2434 23.5623 27.0258 23.6061C25.7265 23.8332 24.5241 23.8327 23.2122 23.7891L23.2031 23.7744L23.2156 23.7542L23.3905 23.7413Z" fill="#585253"/>
<path d="M26.992 24.1141C26.1309 24.2517 25.2589 24.3094 24.3869 24.2864C24.2083 24.281 22.9163 24.2135 22.8281 24.1538C24.2272 24.2742 25.6356 24.2423 27.0277 24.0586L26.992 24.1141Z" fill="#7D7879"/>
<path d="M31.1562 35.2682C31.3349 34.8381 31.4751 34.4645 31.6311 34.0234C31.6332 34.0945 31.6341 34.1252 31.6275 34.1973C31.696 34.2255 31.6754 34.2168 31.7535 34.2222C31.6226 34.6033 31.502 34.9361 31.3365 35.3055C31.2412 35.3008 31.2419 35.3043 31.1562 35.2682Z" fill="url(#paint3_linear_1937_9085)"/>
<path d="M22.7216 30.2387C23.2337 30.2045 24.1254 30.2886 24.6861 30.2832L24.6679 30.3306C24.1598 30.3083 22.8864 30.3723 22.4688 30.2811L22.7071 30.2675L22.7216 30.2387Z" fill="#7D7879"/>
<path d="M26.0291 34.2284C25.8601 34.2929 23.9448 34.2598 23.6406 34.2441C23.7685 34.2235 24.2669 34.2256 24.4328 34.2223C24.9492 34.2125 25.4891 34.1727 26.0015 34.168L25.9668 34.2073L26.0291 34.2284Z" fill="#959091"/>
<path d="M21.828 28.5441C21.4865 28.5511 20.5339 28.3315 20.1875 28.2499L20.1947 28.2422C20.3704 28.2516 21.6484 28.4168 21.8057 28.4712L21.776 28.5012C21.7909 28.5141 21.8123 28.534 21.828 28.5441Z" fill="#959091"/>
<path d="M29.7031 31.6344C29.9988 31.5613 30.3004 31.5088 30.59 31.4384C30.8979 31.3637 31.0067 31.2716 31.3595 31.25C30.9845 31.3309 30.5838 31.527 30.1919 31.5887C30.0479 31.6112 29.8931 31.6641 29.7463 31.682L29.7031 31.6344Z" fill="#7D7879"/>
<path d="M23.2206 23.787C22.978 23.8273 21.9025 23.6797 21.625 23.6211C21.9415 23.6373 22.277 23.6848 22.5987 23.7012C22.8546 23.7144 23.1506 23.7118 23.399 23.7392L23.224 23.7521L23.2116 23.7723L23.2206 23.787Z" fill="#B5B2B5"/>
<path d="M30.0938 44.3334C30.2915 44.2877 30.7411 44.1681 30.9209 44.1484C30.8402 44.2267 30.2578 44.4065 30.1225 44.4513L30.0956 44.4325L30.1306 44.4013L30.0938 44.3334Z" fill="#341005"/>
<path d="M14.6865 29.9844C14.7739 30.0266 14.8341 30.1527 14.8431 30.2483C14.8521 30.3437 14.8275 30.3446 14.7671 30.4088C14.6756 30.4086 14.7119 30.4227 14.6445 30.3852C14.6345 30.2879 14.6422 30.065 14.6865 29.9844Z" fill="#D3EFE6"/>
<path d="M11.1254 31.6953C11.2035 31.7352 11.3351 31.8359 11.3115 31.9339L11.2374 31.9602C11.1567 31.9112 11.077 31.8734 11.0625 31.7846C11.0872 31.7766 11.1078 31.7255 11.1254 31.6953Z" fill="#D3EFE6"/>
<path d="M23.5374 38.2957C23.3557 38.3069 22.88 38.264 22.7031 38.2181C22.762 38.1864 23.3075 38.2314 23.4005 38.2448L23.5374 38.2957Z" fill="#B5B2B5"/>
<path d="M30.5469 34.9582C30.7144 34.8848 31.062 34.8094 31.2485 34.7812C31.0222 34.8741 30.7746 34.9252 30.5766 35.0062L30.5469 34.9582Z" fill="#959091"/>
<path d="M29.4351 36.9296C29.6595 36.863 29.8887 36.8136 30.1204 36.7812C30.0756 36.8248 29.5217 36.9624 29.4219 36.9845L29.4351 36.9296Z" fill="#585253"/>
<path d="M27.0356 24.0582C27.2419 24.017 27.4512 23.9923 27.6617 23.9844L27.6697 23.994C27.5088 24.0359 27.1706 24.0985 27 24.1137L27.0356 24.0582Z" fill="#B5B2B5"/>
<path d="M17.3661 31.2148C17.5708 31.2636 17.7835 31.31 17.9833 31.374L18.0252 31.4441C17.8031 31.3866 17.5873 31.3039 17.3594 31.2505L17.3661 31.2148Z" fill="#7D7879"/>
<path d="M39.6032 34.1875L39.7061 34.2283L39.7142 34.2742C39.5829 34.3401 39.4428 34.4191 39.3125 34.4889C39.4114 34.3902 39.5081 34.2897 39.6032 34.1875Z" fill="#AA8561"/>
<path d="M24.6744 30.2807C24.8512 30.2692 25.044 30.2896 25.2221 30.3032C25.0815 30.3255 24.799 30.3386 24.6562 30.3281L24.6744 30.2807Z" fill="#B5B2B5"/>
<path d="M31.5052 33.1992L31.5191 33.2405C31.3673 33.2939 31.2158 33.3483 31.065 33.4036L31.0469 33.3499L31.5052 33.1992Z" fill="#585253"/>
<path d="M31.5 33.2024C31.5953 33.149 31.7631 33.0883 31.867 33.0508L31.8478 33.1405C31.7737 33.1248 31.6012 33.2113 31.5139 33.2437L31.5 33.2024Z" fill="#959091"/>
<path d="M14.5206 30.1953C14.6372 30.2764 14.6208 30.3964 14.5879 30.5122C14.5557 30.4918 14.5508 30.4838 14.523 30.4573C14.5119 30.3512 14.5152 30.3031 14.5206 30.1953Z" fill="#D3EFE6"/>
<path d="M17.3694 31.2506C17.2631 31.2241 17.0837 31.1824 17 31.1203L17.0472 31.1133L17.0329 31.1461L17.056 31.1147C17.1893 31.1475 17.2464 31.1627 17.3762 31.215L17.3694 31.2506Z" fill="#B5B2B5"/>
<path d="M17.5821 29.3758C17.5082 29.3498 17.3469 29.3041 17.3125 29.2422C17.4194 29.2408 17.5168 29.2891 17.6192 29.3282L17.5821 29.3758Z" fill="#959091"/>
<path d="M13.4219 29.5898C13.462 29.6004 13.4857 29.6109 13.5242 29.6259C13.5694 29.6946 13.5543 29.6831 13.5569 29.7797C13.4496 29.7037 13.4422 29.7073 13.4219 29.5898Z" fill="#D3EFE6"/>
</g>
<defs>
<linearGradient id="paint0_linear_1937_9085" x1="22.3964" y1="18.1077" x2="22.2673" y2="18.2547" gradientUnits="userSpaceOnUse">
<stop stop-color="#050000"/>
<stop offset="1" stop-color="#321C10"/>
</linearGradient>
<linearGradient id="paint1_linear_1937_9085" x1="22.0526" y1="32.1703" x2="23.6975" y2="41.9451" gradientUnits="userSpaceOnUse">
<stop stop-color="#CA4E25"/>
<stop offset="1" stop-color="#E3723E"/>
</linearGradient>
<linearGradient id="paint2_linear_1937_9085" x1="3.79356" y1="32.3334" x2="13.991" y2="35.4719" gradientUnits="userSpaceOnUse">
<stop stop-color="#E06433"/>
<stop offset="1" stop-color="#F19459"/>
</linearGradient>
<linearGradient id="paint3_linear_1937_9085" x1="31.1355" y1="34.7786" x2="31.7149" y2="34.6988" gradientUnits="userSpaceOnUse">
<stop stop-color="#120707"/>
<stop offset="1" stop-color="#30190E"/>
</linearGradient>
<clipPath id="clip0_1937_9085">
<rect width="48" height="48" rx="24" fill="white"/>
</clipPath>
</defs>
</svg>
