<svg width="24" height="24" viewBox="0 0 24 24" fill="none" xmlns="http://www.w3.org/2000/svg">
<rect width="24" height="24" rx="6" fill="#F5F5F5"/>
<path d="M4 12.3886C4 12.2286 4 11.1771 4 11.0171C5.53936 7.65714 7.87172 4 11.93 4C14.2624 4 17.9942 6.14857 17.9942 8.73143C17.9942 10.2629 16.5948 10.4 15.3353 10.4C13.7959 10.4 12.2332 9.80571 10.8338 9.80571C8.96793 9.80571 7.73178 10.2629 7.73178 12.2286C7.73178 13.6 9.27114 14.6743 10.6706 14.6743C13.0029 14.6743 14.5656 12.2286 16.7347 12.2286C18.6006 12.2286 20 14.2171 20 15.8857C20 19.4057 14.5656 20 12.07 20C6.79883 20 4 18.1714 4 12.3886Z" fill="#2A1101"/>
</svg>
